<?xml version="1.0" encoding="UTF-8"?>
<svg width="710px" height="391px" viewBox="0 0 710 391" version="1.1" xmlns="http://www.w3.org/2000/svg" xmlns:xlink="http://www.w3.org/1999/xlink">
    <title>arrow-mobile</title>
    <g id="arrow-mobile" stroke="none" stroke-width="1" fill="none" fill-rule="evenodd">
        <path id="Line" d="M66.0901939,46.5443224 L105.530041,78.0571921 C107.687391,79.7809385 108.038896,82.9271888 106.31515,85.084539 C104.591404,87.2418891 101.445153,87.5933944 99.2878032,85.869648 L74.76,66.271 L83.9674873,89.0415197 L142.635363,234.125591 C143.670571,236.685631 142.434449,239.600155 139.874409,240.635363 C137.314369,241.670571 134.399845,240.434449 133.364637,237.874409 L74.6967612,92.7903379 L65.489,70.02 L61.4778472,101.15892 C61.1343051,103.825637 58.7491856,105.729559 56.0956805,105.50222 L55.8799783,105.479089 C53.1411876,105.126262 51.2069819,102.620011 51.5598088,99.8812204 L58.0100558,49.8117006 C58.5082287,45.9446741 63.0441304,44.1104843 66.0901939,46.5443224 Z" fill="#3B82F6" fill-rule="nonzero"></path>
        <g id="TRY-IT!" transform="translate(80.0625, 264.3203)" fill="#3B82F6" fill-rule="nonzero">
            <path d="M14.5195312,17.5957031 C14.3007813,17.5957031 13.8837891,17.6435547 13.2685547,17.7392578 C12.6533203,17.8349609 11.9355469,17.9511719 11.1152344,18.0878906 C10.2949219,18.2246094 9.43359375,18.3818359 8.53125,18.5595703 C7.62890625,18.7373047 6.78125,18.8945312 5.98828125,19.03125 C5.1953125,19.1679688 4.50488281,19.2841797 3.91699219,19.3798828 C3.32910156,19.4755859 2.93945312,19.5234375 2.74804688,19.5234375 C0.916015625,19.5234375 0,18.5664062 0,16.6523438 C0,16.1328125 0.0478515625,15.6201172 0.143554688,15.1142578 C0.239257812,14.6083984 0.41015625,14.1435547 0.65625,13.7197266 C0.90234375,13.2958984 1.23046875,12.9335938 1.640625,12.6328125 C2.05078125,12.3320312 2.5703125,12.1269531 3.19921875,12.0175781 C6.3984375,11.5253906 9.58398438,11.0058594 12.7558594,10.4589844 C15.9277344,9.91210938 19.1269531,9.33789062 22.3535156,8.73632812 C23.0644531,8.59960938 23.7070312,8.46972656 24.28125,8.34667969 C24.8554688,8.22363281 25.4980469,8.05273438 26.2089844,7.83398438 C26.9746094,7.61523438 27.8085937,7.40332031 28.7109375,7.19824219 C29.6132812,6.99316406 30.5224609,6.80859375 31.4384766,6.64453125 C32.3544922,6.48046875 33.2431641,6.34375 34.1044922,6.234375 C34.9658203,6.125 35.7519531,6.0703125 36.4628906,6.0703125 C37.3378906,6.0703125 38.0009766,6.35058594 38.4521484,6.91113281 C38.9033203,7.47167969 39.1289062,8.2578125 39.1289062,9.26953125 C39.1289062,9.7890625 39.0878906,10.2880859 39.0058594,10.7666016 C38.9238281,11.2451172 38.7734375,11.6757812 38.5546875,12.0585938 C38.3359375,12.4414062 38.0351562,12.7558594 37.6523438,13.0019531 C37.2695312,13.2480469 36.7773438,13.3984375 36.1757812,13.453125 C34.6171875,13.671875 32.9492188,13.9384766 31.171875,14.2529297 C29.3945312,14.5673828 27.8496094,14.9160156 26.5371094,15.2988281 C25.9902344,15.4628906 25.5800781,15.7294922 25.3066406,16.0986328 C25.0332031,16.4677734 24.8554688,16.9257812 24.7734375,17.4726562 C24.6914062,17.9921875 24.6435547,18.5185547 24.6298828,19.0517578 C24.6162109,19.5849609 24.609375,20.0976562 24.609375,20.5898438 C24.609375,21.7382812 24.6572266,22.8867188 24.7529297,24.0351562 C24.8486328,25.1835938 24.9375,26.3320312 25.0195312,27.4804688 C25.265625,31.4179688 25.6416016,35.3144531 26.1474609,39.1699219 C26.6533203,43.0253906 27.2070312,46.921875 27.8085937,50.859375 C27.8632813,50.9960938 27.890625,51.1328125 27.890625,51.2695312 C27.890625,51.40625 27.890625,51.5429688 27.890625,51.6796875 C27.890625,53.1835938 27.0429688,54.25 25.3476562,54.8789062 L23.5019531,55.453125 C23.0097656,55.6171875 22.53125,55.6992188 22.0664062,55.6992188 C21.3554688,55.6992188 20.78125,55.4736328 20.34375,55.0224609 C19.90625,54.5712891 19.6191406,53.9082031 19.4824219,53.0332031 C18.7167969,48.3300781 18.046875,43.6474609 17.4726562,38.9853516 C16.8984375,34.3232422 16.5292969,29.6269531 16.3652344,24.8964844 C16.3105469,24.1308594 16.2695312,23.296875 16.2421875,22.3945312 C16.2148438,21.4921875 16.2011719,20.5625 16.2011719,19.6054688 C16.2011719,18.265625 15.640625,17.5957031 14.5195312,17.5957031 Z" id="Path"></path>
            <path d="M50.3305469,20.5898438 C49.7836719,20.8085938 49.2504687,20.9179688 48.7309375,20.9179688 C47.4184375,20.9179688 46.5160937,20.1386719 46.0239062,18.5800781 C45.8871875,18.1699219 45.7983203,17.828125 45.7573047,17.5546875 C45.7162891,17.28125 45.6957812,17.0351562 45.6957812,16.8164062 C45.6957812,15.53125 46.4203906,14.5742188 47.8696094,13.9453125 C50.7407031,12.796875 53.6664844,11.8671875 56.6469531,11.15625 C59.6274219,10.4453125 62.6352344,10.0898438 65.6703906,10.0898438 C67.0922656,10.0898438 68.4936328,10.2402344 69.8744922,10.5410156 C71.2553516,10.8417969 72.4926562,11.3613281 73.5864062,12.0996094 C74.6801562,12.8378906 75.5688281,13.8222656 76.2524219,15.0527344 C76.9360156,16.2832031 77.2778125,17.828125 77.2778125,19.6875 C77.2778125,21 77.0112109,22.2578125 76.4780078,23.4609375 C75.9448047,24.6640625 75.2407031,25.8125 74.3657031,26.90625 C73.4907031,28 72.4926562,29.0390625 71.3715625,30.0234375 C70.2504687,31.0078125 69.1020312,31.9101562 67.92625,32.7304688 C66.7504687,33.5507812 65.5883594,34.2958984 64.4399219,34.9658203 C63.2914844,35.6357422 62.2524219,36.2167969 61.3227344,36.7089844 C60.5297656,37.1738281 60.1332812,37.6523438 60.1332812,38.1445312 C60.1332812,38.71875 60.5571094,39.1699219 61.4047656,39.4980469 C64.3305469,40.5371094 67.3246875,41.5078125 70.3871875,42.4101562 C73.4496875,43.3125 76.5532031,44.3242188 79.6977344,45.4453125 C81.1742969,45.9921875 81.9125781,46.8398438 81.9125781,47.9882812 C81.9125781,48.5351562 81.7553516,49.0888672 81.4408984,49.6494141 C81.1264453,50.2099609 80.7778125,50.7226562 80.395,51.1875 C79.6020312,52.3632812 78.6176562,52.9511719 77.441875,52.9511719 C77.0317187,52.9511719 76.5258594,52.8691406 75.9242969,52.7050781 C74.1469531,52.0214844 72.2397266,51.3105469 70.2026172,50.5722656 C68.1655078,49.8339844 66.0873828,49.1025391 63.9682422,48.3779297 C61.8491016,47.6533203 59.7641406,46.9560547 57.7133594,46.2861328 C55.6625781,45.6162109 53.7621875,45.0078125 52.0121875,44.4609375 C51.3832812,44.296875 50.9594531,44.2148438 50.7407031,44.2148438 C50.5219531,44.2148438 50.3510547,44.2626953 50.2280078,44.3583984 C50.1049609,44.4541016 50.0434375,44.6523438 50.0434375,44.953125 C50.0434375,45.0351562 50.0571094,45.1376953 50.0844531,45.2607422 C50.1117969,45.3837891 50.1254687,45.5136719 50.1254687,45.6503906 C50.2075,46.0605469 50.3100391,46.6005859 50.4330859,47.2705078 C50.5561328,47.9404297 50.6791797,48.6308594 50.8022266,49.3417969 C50.9252734,50.0527344 51.0278125,50.7294922 51.1098437,51.3720703 C51.191875,52.0146484 51.2328906,52.5410156 51.2328906,52.9511719 C51.2328906,54.4824219 50.3989062,55.5488281 48.7309375,56.1503906 L46.8852344,56.7246094 C46.6117969,56.8066406 46.3657031,56.8681641 46.1469531,56.9091797 C45.9282031,56.9501953 45.6957812,56.9707031 45.4496875,56.9707031 C43.9457812,56.9707031 43.0707812,56.0410156 42.8246875,54.1816406 C42.1684375,49.2050781 41.3276172,44.296875 40.3022266,39.4570312 C39.2768359,34.6171875 38.1078906,29.7910156 36.7953906,24.9785156 C36.7133594,24.7050781 36.6655078,24.4658203 36.6518359,24.2607422 C36.6381641,24.0556641 36.6313281,23.8710938 36.6313281,23.7070312 C36.6313281,22.2578125 37.410625,21.2734375 38.9692187,20.7539062 C39.5434375,20.5625 40.0151172,20.4121094 40.3842578,20.3027344 C40.7533984,20.1933594 41.0541797,20.1044922 41.2866016,20.0361328 C41.5190234,19.9677734 41.6967578,19.9199219 41.8198047,19.8925781 C41.9428516,19.8652344 42.0590625,19.8515625 42.1684375,19.8515625 C43.645,19.8515625 44.6020312,20.6855469 45.0395312,22.3535156 C45.61375,24.4863281 46.1537891,26.5507812 46.6596484,28.546875 C47.1655078,30.5429688 47.6235156,32.5117188 48.0336719,34.453125 C48.2524219,35.4101562 48.6489062,35.8886719 49.223125,35.8886719 C49.3871875,35.8886719 49.5785937,35.8544922 49.7973437,35.7861328 C50.0160937,35.7177734 50.2758594,35.6152344 50.5766406,35.4785156 C51.4516406,35.0136719 52.5112109,34.4394531 53.7553516,33.7558594 C54.9994922,33.0722656 56.2983203,32.3134766 57.6518359,31.4794922 C59.0053516,30.6455078 60.3451953,29.7636719 61.6713672,28.8339844 C62.9975391,27.9042969 64.1869922,26.9746094 65.2397266,26.0449219 C66.2924609,25.1152344 67.1469531,24.1992188 67.8032031,23.296875 C68.4594531,22.3945312 68.7875781,21.546875 68.7875781,20.7539062 C68.7875781,20.2617188 68.7123828,19.8105469 68.5619922,19.4003906 C68.4116016,18.9902344 68.1313281,18.6347656 67.7211719,18.3339844 C67.3110156,18.0332031 66.7573047,17.8007812 66.0600391,17.6367188 C65.3627734,17.4726562 64.4809375,17.390625 63.4145312,17.390625 C62.3754687,17.390625 61.2885547,17.4794922 60.1537891,17.6572266 C59.0190234,17.8349609 57.8910937,18.0742188 56.77,18.375 C55.6489062,18.6757812 54.5414844,19.0175781 53.4477344,19.4003906 C52.3539844,19.7832031 51.3149219,20.1796875 50.3305469,20.5898438 Z" id="Path"></path>
            <path d="M73.2626563,16.5703125 C72.305625,15.859375 71.8271094,15.0117188 71.8271094,14.0273438 C71.8271094,13.6445312 71.8954688,13.2685547 72.0321875,12.8994141 C72.1689063,12.5302734 72.415,12.1542969 72.7704688,11.7714844 L73.9599219,10.4179688 C74.6708594,9.54296875 75.5048438,9.10546875 76.461875,9.10546875 C76.79,9.10546875 77.1386328,9.16699219 77.5077734,9.29003906 C77.8769141,9.41308594 78.2528906,9.625 78.6357031,9.92578125 C82.4638281,12.796875 86.1483984,15.7705078 89.6894141,18.8466797 C93.2304297,21.9228516 96.6552344,25.2792969 99.9638281,28.9160156 C100.483359,29.4082031 100.934531,29.6542969 101.317344,29.6542969 C102.055625,29.6542969 102.506797,29.1621094 102.670859,28.1777344 L106.280234,13.78125 C106.690391,12.1679688 107.524375,11.3613281 108.782188,11.3613281 C109.055625,11.3613281 109.34957,11.4023438 109.664023,11.484375 C109.978477,11.5664062 110.299766,11.7167969 110.627891,11.9355469 L112.063438,12.7148438 C113.403281,13.453125 114.073203,14.4511719 114.073203,15.7089844 C114.073203,16.1191406 113.991172,16.5703125 113.827109,17.0625 C112.897422,20.4804688 111.960898,24.0830078 111.017539,27.8701172 C110.07418,31.6572266 109.110313,35.5400391 108.125938,39.5185547 C107.141563,43.4970703 106.129844,47.5234375 105.090781,51.5976562 C104.051719,55.671875 102.985313,59.7050781 101.891563,63.6972656 C101.454063,65.3652344 100.510703,66.1992188 99.0614844,66.1992188 C98.6513281,66.1992188 98.2001563,66.1171875 97.7079688,65.953125 L96.3544531,65.5429688 C95.5067969,65.3242188 94.8915625,64.96875 94.50875,64.4765625 C94.1259375,63.984375 93.9345313,63.3828125 93.9345313,62.671875 C93.9345313,62.5078125 93.9413672,62.3164062 93.9550391,62.0976562 C93.9687109,61.8789062 94.0165625,61.6601562 94.0985938,61.4414062 C94.9735938,58.1875 95.8349219,54.9609375 96.6825781,51.7617188 C97.5302344,48.5625 98.3505469,45.3496094 99.1435156,42.1230469 C99.1982031,41.9316406 99.2392188,41.7675781 99.2665625,41.6308594 C99.2939063,41.4941406 99.3075781,41.34375 99.3075781,41.1796875 C99.3075781,40.8515625 99.2323828,40.5371094 99.0819922,40.2363281 C98.9316016,39.9355469 98.7333594,39.6347656 98.4872656,39.3339844 C94.6317969,35.0683594 90.6054297,31.0625 86.4081641,27.3164062 C82.2108984,23.5703125 77.8290625,19.9882812 73.2626563,16.5703125 Z" id="Path"></path>
            <path d="M139.388594,13.3710938 C139.388594,12.8789062 139.511641,12.4208984 139.757734,11.9970703 C140.003828,11.5732422 140.345625,11.2041016 140.783125,10.8896484 C141.220625,10.5751953 141.73332,10.3222656 142.321211,10.1308594 C142.909102,9.93945312 143.531172,9.84375 144.187422,9.84375 C145.472578,9.84375 146.415938,10.0488281 147.0175,10.4589844 C147.619063,10.8691406 147.988203,11.5117188 148.124922,12.3867188 C148.589766,16.0234375 148.979414,19.4619141 149.293867,22.7021484 C149.60832,25.9423828 149.86125,29.0322266 150.052656,31.9716797 C150.244063,34.9111328 150.380781,37.7275391 150.462813,40.4208984 C150.544844,43.1142578 150.585859,45.71875 150.585859,48.234375 C150.585859,49.6015625 150.100508,50.6269531 149.129805,51.3105469 C148.159102,51.9941406 146.744063,52.3359375 144.884688,52.3359375 C144.037031,52.3359375 143.373945,52.1376953 142.89543,51.7412109 C142.416914,51.3447266 142.177656,50.7636719 142.177656,49.9980469 C142.177656,45.2949219 142.034102,40.8857422 141.746992,36.7705078 C141.459883,32.6552734 141.138594,28.9980469 140.783125,25.7988281 C140.427656,22.5996094 140.106367,19.9267578 139.819258,17.7802734 C139.532148,15.6337891 139.388594,14.1640625 139.388594,13.3710938 Z" id="Path"></path>
            <path d="M164.986719,17.5957031 C164.767969,17.5957031 164.350977,17.6435547 163.735742,17.7392578 C163.120508,17.8349609 162.402734,17.9511719 161.582422,18.0878906 C160.762109,18.2246094 159.900781,18.3818359 158.998437,18.5595703 C158.096094,18.7373047 157.248437,18.8945312 156.455469,19.03125 C155.6625,19.1679688 154.97207,19.2841797 154.38418,19.3798828 C153.796289,19.4755859 153.406641,19.5234375 153.215234,19.5234375 C151.383203,19.5234375 150.467187,18.5664062 150.467187,16.6523438 C150.467187,16.1328125 150.515039,15.6201172 150.610742,15.1142578 C150.706445,14.6083984 150.877344,14.1435547 151.123437,13.7197266 C151.369531,13.2958984 151.697656,12.9335938 152.107812,12.6328125 C152.517969,12.3320312 153.0375,12.1269531 153.666406,12.0175781 C156.865625,11.5253906 160.051172,11.0058594 163.223047,10.4589844 C166.394922,9.91210938 169.594141,9.33789062 172.820703,8.73632812 C173.531641,8.59960938 174.174219,8.46972656 174.748437,8.34667969 C175.322656,8.22363281 175.965234,8.05273438 176.676172,7.83398438 C177.441797,7.61523438 178.275781,7.40332031 179.178125,7.19824219 C180.080469,6.99316406 180.989648,6.80859375 181.905664,6.64453125 C182.82168,6.48046875 183.710352,6.34375 184.57168,6.234375 C185.433008,6.125 186.219141,6.0703125 186.930078,6.0703125 C187.805078,6.0703125 188.468164,6.35058594 188.919336,6.91113281 C189.370508,7.47167969 189.596094,8.2578125 189.596094,9.26953125 C189.596094,9.7890625 189.555078,10.2880859 189.473047,10.7666016 C189.391016,11.2451172 189.240625,11.6757812 189.021875,12.0585938 C188.803125,12.4414062 188.502344,12.7558594 188.119531,13.0019531 C187.736719,13.2480469 187.244531,13.3984375 186.642969,13.453125 C185.084375,13.671875 183.416406,13.9384766 181.639062,14.2529297 C179.861719,14.5673828 178.316797,14.9160156 177.004297,15.2988281 C176.457422,15.4628906 176.047266,15.7294922 175.773828,16.0986328 C175.500391,16.4677734 175.322656,16.9257812 175.240625,17.4726562 C175.158594,17.9921875 175.110742,18.5185547 175.09707,19.0517578 C175.083398,19.5849609 175.076562,20.0976562 175.076562,20.5898438 C175.076562,21.7382812 175.124414,22.8867188 175.220117,24.0351562 C175.31582,25.1835938 175.404687,26.3320312 175.486719,27.4804688 C175.732812,31.4179688 176.108789,35.3144531 176.614648,39.1699219 C177.120508,43.0253906 177.674219,46.921875 178.275781,50.859375 C178.330469,50.9960938 178.357812,51.1328125 178.357812,51.2695312 C178.357812,51.40625 178.357812,51.5429688 178.357812,51.6796875 C178.357812,53.1835938 177.510156,54.25 175.814844,54.8789062 L173.969141,55.453125 C173.476953,55.6171875 172.998437,55.6992188 172.533594,55.6992188 C171.822656,55.6992188 171.248437,55.4736328 170.810937,55.0224609 C170.373437,54.5712891 170.086328,53.9082031 169.949609,53.0332031 C169.183984,48.3300781 168.514062,43.6474609 167.939844,38.9853516 C167.365625,34.3232422 166.996484,29.6269531 166.832422,24.8964844 C166.777734,24.1308594 166.736719,23.296875 166.709375,22.3945312 C166.682031,21.4921875 166.668359,20.5625 166.668359,19.6054688 C166.668359,18.265625 166.107812,17.5957031 164.986719,17.5957031 Z" id="Path"></path>
            <path d="M188.534063,4.63476562 C188.424688,4.25195312 188.33582,3.91015625 188.267461,3.609375 C188.199102,3.30859375 188.164922,3.0078125 188.164922,2.70703125 C188.164922,1.94140625 188.40418,1.29882812 188.882695,0.779296875 C189.361211,0.259765625 190.078984,0 191.036016,0 C195.274297,0 197.598516,1.01171875 198.008672,3.03515625 C198.500859,5.60546875 198.952031,8.18945312 199.362188,10.7871094 C199.772344,13.3847656 200.134648,16.0166016 200.449102,18.6826172 C200.763555,21.3486328 201.009648,24.0556641 201.187383,26.8037109 C201.365117,29.5517578 201.453984,32.3613281 201.453984,35.2324219 C201.453984,35.7792969 201.426641,36.3056641 201.371953,36.8115234 C201.317266,37.3173828 201.207891,37.7685547 201.043828,38.1650391 C200.879766,38.5615234 200.65418,38.8828125 200.36707,39.1289062 C200.079961,39.375 199.690313,39.4980469 199.198125,39.4980469 L195.752813,39.0058594 C195.041875,38.9238281 194.542852,38.7119141 194.255742,38.3701172 C193.968633,38.0283203 193.797734,37.5429688 193.743047,36.9140625 C193.524297,31.9101563 192.977422,26.6738281 192.102422,21.2050781 C191.227422,15.7363281 190.037969,10.2128906 188.534063,4.63476562 Z M196.983281,55.125 C196.190313,55.125 195.445195,55.0087891 194.74793,54.7763672 C194.050664,54.5439453 193.449102,54.2158203 192.943242,53.7919922 C192.437383,53.3681641 192.034063,52.8691406 191.733281,52.2949219 C191.4325,51.7207031 191.282109,51.0917969 191.282109,50.4082031 C191.282109,49.2597656 191.740117,48.3300781 192.656133,47.6191406 C193.572148,46.9082031 194.795781,46.5527344 196.327031,46.5527344 C197.037969,46.5527344 197.721563,46.6826172 198.377813,46.9423828 C199.034063,47.2021484 199.615117,47.5507812 200.120977,47.9882812 C200.626836,48.4257812 201.030156,48.9384766 201.330938,49.5263672 C201.631719,50.1142578 201.782109,50.7226562 201.782109,51.3515625 C201.782109,52.5273438 201.351445,53.4501953 200.490117,54.1201172 C199.628789,54.7900391 198.459844,55.125 196.983281,55.125 Z" id="Shape"></path>
        </g>
        <g id="(YOUR-EMAIL-WON’T-BE" transform="translate(87.8438, 342.9688)" fill="#3B82F6" fill-rule="nonzero">
            <path d="M1.5234375,1.734375 C1.5859375,1.453125 1.6796875,1.20703125 1.8046875,0.99609375 C1.9296875,0.78515625 2.10546875,0.60546875 2.33203125,0.45703125 C2.55859375,0.30859375 2.84375,0.1953125 3.1875,0.1171875 C3.53125,0.0390625 3.953125,0 4.453125,0 C5.03125,0 5.48046875,0.12109375 5.80078125,0.36328125 C6.12109375,0.60546875 6.28125,0.9453125 6.28125,1.3828125 C6.28125,1.4921875 6.265625,1.66015625 6.234375,1.88671875 C6.203125,2.11328125 6.125,2.5234375 6,3.1171875 C5.84375,3.8828125 5.69140625,4.73828125 5.54296875,5.68359375 C5.39453125,6.62890625 5.26171875,7.625 5.14453125,8.671875 C5.02734375,9.71875 4.93359375,10.8007812 4.86328125,11.9179688 C4.79296875,13.0351562 4.7578125,14.1484375 4.7578125,15.2578125 C4.7578125,16.3671875 4.796875,17.4882812 4.875,18.6210938 C4.953125,19.7539062 5.08984375,20.8828125 5.28515625,22.0078125 C5.48046875,23.1328125 5.73828125,24.2382812 6.05859375,25.3242188 C6.37890625,26.4101562 6.7890625,27.453125 7.2890625,28.453125 C7.4453125,28.78125 7.625,29.0859375 7.828125,29.3671875 C8.03125,29.6484375 8.21875,29.9140625 8.390625,30.1640625 C8.5625,30.4140625 8.7109375,30.65625 8.8359375,30.890625 C8.9609375,31.125 9.0234375,31.359375 9.0234375,31.59375 C9.0234375,31.859375 8.92578125,32.1132812 8.73046875,32.3554688 C8.53515625,32.5976562 8.1875,32.8984375 7.6875,33.2578125 C7.234375,33.5703125 6.87890625,33.7851562 6.62109375,33.9023438 C6.36328125,34.0195312 6.140625,34.078125 5.953125,34.078125 C5.6875,34.078125 5.37890625,33.9179688 5.02734375,33.5976562 C4.67578125,33.2773438 4.296875,32.84375 3.890625,32.296875 C3.21875,31.34375 2.63671875,30.2148438 2.14453125,28.9101562 C1.65234375,27.6054688 1.25,26.2109375 0.9375,24.7265625 C0.625,23.2421875 0.390625,21.7070312 0.234375,20.1210938 C0.078125,18.5351562 0,16.9921875 0,15.4921875 C0,13.2109375 0.140625,10.9140625 0.421875,8.6015625 C0.703125,6.2890625 1.0703125,4 1.5234375,1.734375 Z" id="Path"></path>
            <path d="M6.3071875,7.96875 C5.7603125,7.5625 5.486875,7.078125 5.486875,6.515625 C5.486875,6.296875 5.5259375,6.08203125 5.6040625,5.87109375 C5.6821875,5.66015625 5.8228125,5.4453125 6.0259375,5.2265625 L6.705625,4.453125 C7.111875,3.953125 7.5884375,3.703125 8.1353125,3.703125 C8.3228125,3.703125 8.52203125,3.73828125 8.73296875,3.80859375 C8.94390625,3.87890625 9.15875,4 9.3775,4.171875 C11.565,5.8125 13.6704687,7.51171875 15.6939062,9.26953125 C17.7173437,11.0273438 19.674375,12.9453125 21.565,15.0234375 C21.861875,15.3046875 22.1196875,15.4453125 22.3384375,15.4453125 C22.7603125,15.4453125 23.018125,15.1640625 23.111875,14.6015625 L25.174375,6.375 C25.40875,5.453125 25.8853125,4.9921875 26.6040625,4.9921875 C26.7603125,4.9921875 26.9282812,5.015625 27.1079687,5.0625 C27.2876562,5.109375 27.47125,5.1953125 27.65875,5.3203125 L28.4790625,5.765625 C29.2446875,6.1875 29.6275,6.7578125 29.6275,7.4765625 C29.6275,7.7109375 29.580625,7.96875 29.486875,8.25 C28.955625,10.203125 28.4204687,12.2617188 27.8814062,14.4257812 C27.3423437,16.5898438 26.7915625,18.8085938 26.2290625,21.0820312 C25.6665625,23.3554688 25.0884375,25.65625 24.4946875,27.984375 C23.9009375,30.3125 23.2915625,32.6171875 22.6665625,34.8984375 C22.4165625,35.8515625 21.8775,36.328125 21.049375,36.328125 C20.815,36.328125 20.5571875,36.28125 20.2759375,36.1875 L19.5025,35.953125 C19.018125,35.828125 18.6665625,35.625 18.4478125,35.34375 C18.2290625,35.0625 18.1196875,34.71875 18.1196875,34.3125 C18.1196875,34.21875 18.1235937,34.109375 18.1314062,33.984375 C18.1392187,33.859375 18.1665625,33.734375 18.2134375,33.609375 C18.7134375,31.75 19.205625,29.90625 19.69,28.078125 C20.174375,26.25 20.643125,24.4140625 21.09625,22.5703125 C21.1275,22.4609375 21.1509375,22.3671875 21.1665625,22.2890625 C21.1821875,22.2109375 21.19,22.125 21.19,22.03125 C21.19,21.84375 21.1470312,21.6640625 21.0610937,21.4921875 C20.9751562,21.3203125 20.861875,21.1484375 20.72125,20.9765625 C18.518125,18.5390625 16.2173437,16.25 13.8189062,14.109375 C11.4204687,11.96875 8.9165625,9.921875 6.3071875,7.96875 Z" id="Path"></path>
            <path d="M43.9034375,30.9609375 C42.2003125,30.9609375 40.6339063,30.671875 39.2042188,30.09375 C37.7745313,29.515625 36.5440625,28.7070312 35.5128125,27.6679688 C34.4815625,26.6289062 33.676875,25.390625 33.09875,23.953125 C32.520625,22.515625 32.2315625,20.9296875 32.2315625,19.1953125 C32.2315625,18.2578125 32.3135938,17.3554688 32.4776563,16.4882812 C32.6417188,15.6210938 32.864375,14.8125 33.145625,14.0625 C33.270625,13.765625 33.333125,13.5546875 33.333125,13.4296875 C33.333125,13.2734375 33.2940625,13.125 33.2159375,12.984375 C33.1378125,12.84375 33.051875,12.6953125 32.958125,12.5390625 C32.864375,12.3828125 32.7784375,12.21875 32.7003125,12.046875 C32.6221875,11.875 32.583125,11.6796875 32.583125,11.4609375 C32.583125,10.8046875 32.958125,10.1601562 33.708125,9.52734375 C34.458125,8.89453125 35.4503125,8.33203125 36.6846875,7.83984375 C37.9190625,7.34765625 39.3175,6.94921875 40.88,6.64453125 C42.4425,6.33984375 44.0440625,6.1875 45.6846875,6.1875 C47.7003125,6.1875 49.5167188,6.4453125 51.1339063,6.9609375 C52.7510938,7.4765625 54.1260938,8.21484375 55.2589063,9.17578125 C56.3917188,10.1367188 57.2628125,11.3046875 57.8721875,12.6796875 C58.4815625,14.0546875 58.78625,15.6015625 58.78625,17.3203125 C58.78625,19.2421875 58.4034375,21.0351562 57.6378125,22.6992188 C56.8721875,24.3632812 55.8214063,25.8046875 54.4854688,27.0234375 C53.1495313,28.2421875 51.5753125,29.203125 49.7628125,29.90625 C47.9503125,30.609375 45.9971875,30.9609375 43.9034375,30.9609375 Z M54.0753125,18.234375 C54.0753125,17.015625 53.864375,15.921875 53.4425,14.953125 C53.020625,13.984375 52.41125,13.1679688 51.614375,12.5039062 C50.8175,11.8398438 49.8370313,11.3320312 48.6729688,10.9804688 C47.5089063,10.6289062 46.1925,10.453125 44.72375,10.453125 C42.145625,10.453125 40.2042188,11.1054688 38.8995313,12.4101562 C37.5948438,13.7148438 36.9425,15.65625 36.9425,18.234375 C36.9425,19.484375 37.1378125,20.6289062 37.5284375,21.6679688 C37.9190625,22.7070312 38.4659375,23.5976562 39.1690625,24.3398438 C39.8721875,25.0820312 40.7120313,25.6601562 41.6885938,26.0742188 C42.6651563,26.4882812 43.739375,26.6953125 44.91125,26.6953125 C46.255,26.6953125 47.489375,26.4882812 48.614375,26.0742188 C49.739375,25.6601562 50.7042188,25.078125 51.5089063,24.328125 C52.3135938,23.578125 52.9425,22.6835938 53.395625,21.6445312 C53.84875,20.6054688 54.0753125,19.46875 54.0753125,18.234375 Z" id="Shape"></path>
            <path d="M61.4371875,8.7421875 C61.5309375,8.1953125 61.7965625,7.78515625 62.2340625,7.51171875 C62.6715625,7.23828125 63.398125,7.1015625 64.41375,7.1015625 C64.960625,7.1015625 65.3864062,7.2421875 65.6910937,7.5234375 C65.9957812,7.8046875 66.148125,8.1953125 66.148125,8.6953125 C66.148125,8.7734375 66.1403125,8.84375 66.1246875,8.90625 C66.1090625,8.96875 66.10125,9.0390625 66.10125,9.1171875 C65.929375,10.1328125 65.78875,11.1875 65.679375,12.28125 C65.57,13.375 65.5153125,14.484375 65.5153125,15.609375 C65.5153125,17.0625 65.6442187,18.4335938 65.9020312,19.7226562 C66.1598437,21.0117188 66.6207812,22.1367188 67.2848437,23.0976562 C67.9489062,24.0585938 68.8551562,24.8164062 70.0035937,25.3710938 C71.1520312,25.9257812 72.616875,26.203125 74.398125,26.203125 C75.398125,26.203125 76.2809375,26.0234375 77.0465625,25.6640625 C77.8121875,25.3046875 78.4489062,24.8085938 78.9567187,24.1757812 C79.4645312,23.5429688 79.8473437,22.796875 80.1051562,21.9375 C80.3629687,21.078125 80.491875,20.1484375 80.491875,19.1484375 C80.491875,18.1484375 80.3864062,17.1640625 80.1754687,16.1953125 C79.9645312,15.2265625 79.6832812,14.2695312 79.3317187,13.3242188 C78.9801562,12.3789062 78.5739062,11.4453125 78.1129687,10.5234375 C77.6520312,9.6015625 77.16375,8.671875 76.648125,7.734375 C76.429375,7.3125 76.32,6.9296875 76.32,6.5859375 C76.32,5.9765625 76.6403125,5.4609375 77.2809375,5.0390625 L78.241875,4.40625 C78.66375,4.125 79.0621875,3.984375 79.4371875,3.984375 C80.0153125,3.984375 80.4996875,4.3359375 80.8903125,5.0390625 C81.4840625,6.0859375 82.054375,7.14453125 82.60125,8.21484375 C83.148125,9.28515625 83.6285937,10.3828125 84.0426562,11.5078125 C84.4567187,12.6328125 84.7848437,13.7929688 85.0270312,14.9882812 C85.2692187,16.1835938 85.3903125,17.4140625 85.3903125,18.6796875 C85.3903125,20.4453125 85.0973437,22.0546875 84.5114062,23.5078125 C83.9254687,24.9609375 83.0934375,26.2070312 82.0153125,27.2460938 C80.9371875,28.2851562 79.6442187,29.0898438 78.1364062,29.6601562 C76.6285937,30.2304688 74.9528125,30.515625 73.1090625,30.515625 C71.1090625,30.515625 69.3317187,30.1679688 67.7770312,29.4726562 C66.2223437,28.7773438 64.91375,27.8164062 63.85125,26.5898438 C62.78875,25.3632812 61.9840625,23.9101562 61.4371875,22.2304688 C60.8903125,20.5507812 60.616875,18.7265625 60.616875,16.7578125 C60.616875,15.3828125 60.6989062,14.0039062 60.8629687,12.6210938 C61.0270312,11.2382812 61.2184375,9.9453125 61.4371875,8.7421875 Z" id="Path"></path>
            <path d="M94.97875,10.265625 C94.66625,10.390625 94.3615625,10.453125 94.0646875,10.453125 C93.3146875,10.453125 92.7990625,10.0078125 92.5178125,9.1171875 C92.4396875,8.8828125 92.3889062,8.6875 92.3654687,8.53125 C92.3420312,8.375 92.3303125,8.234375 92.3303125,8.109375 C92.3303125,7.375 92.744375,6.828125 93.5725,6.46875 C95.213125,5.8125 96.885,5.28125 98.588125,4.875 C100.29125,4.46875 102.01,4.265625 103.744375,4.265625 C104.556875,4.265625 105.357656,4.3515625 106.146719,4.5234375 C106.935781,4.6953125 107.642812,4.9921875 108.267812,5.4140625 C108.892812,5.8359375 109.400625,6.3984375 109.79125,7.1015625 C110.181875,7.8046875 110.377187,8.6875 110.377187,9.75 C110.377187,10.5 110.224844,11.21875 109.920156,11.90625 C109.615469,12.59375 109.213125,13.25 108.713125,13.875 C108.213125,14.5 107.642812,15.09375 107.002187,15.65625 C106.361562,16.21875 105.705312,16.734375 105.033437,17.203125 C104.361562,17.671875 103.6975,18.0976562 103.04125,18.4804688 C102.385,18.8632812 101.79125,19.1953125 101.26,19.4765625 C100.806875,19.7421875 100.580312,20.015625 100.580312,20.296875 C100.580312,20.625 100.8225,20.8828125 101.306875,21.0703125 C102.97875,21.6640625 104.689687,22.21875 106.439687,22.734375 C108.189687,23.25 109.963125,23.828125 111.76,24.46875 C112.60375,24.78125 113.025625,25.265625 113.025625,25.921875 C113.025625,26.234375 112.935781,26.5507812 112.756094,26.8710938 C112.576406,27.1914062 112.377187,27.484375 112.158437,27.75 C111.705312,28.421875 111.142812,28.7578125 110.470937,28.7578125 C110.236562,28.7578125 109.9475,28.7109375 109.60375,28.6171875 C108.588125,28.2265625 107.498281,27.8203125 106.334219,27.3984375 C105.170156,26.9765625 103.982656,26.5585938 102.771719,26.1445312 C101.560781,25.7304688 100.369375,25.3320312 99.1975,24.9492188 C98.025625,24.5664062 96.9396875,24.21875 95.9396875,23.90625 C95.5803125,23.8125 95.338125,23.765625 95.213125,23.765625 C95.088125,23.765625 94.9904687,23.7929688 94.9201562,23.8476562 C94.8498437,23.9023438 94.8146875,24.015625 94.8146875,24.1875 C94.8146875,24.234375 94.8225,24.2929688 94.838125,24.3632812 C94.85375,24.4335938 94.8615625,24.5078125 94.8615625,24.5859375 C94.9084375,24.8203125 94.9670312,25.1289062 95.0373437,25.5117188 C95.1076562,25.8945312 95.1779687,26.2890625 95.2482812,26.6953125 C95.3185937,27.1015625 95.3771875,27.4882812 95.4240625,27.8554688 C95.4709375,28.2226562 95.494375,28.5234375 95.494375,28.7578125 C95.494375,29.6328125 95.0178125,30.2421875 94.0646875,30.5859375 L93.01,30.9140625 C92.85375,30.9609375 92.713125,30.9960938 92.588125,31.0195312 C92.463125,31.0429688 92.3303125,31.0546875 92.1896875,31.0546875 C91.3303125,31.0546875 90.8303125,30.5234375 90.6896875,29.4609375 C90.3146875,26.6171875 89.8342187,23.8125 89.2482812,21.046875 C88.6623437,18.28125 87.994375,15.5234375 87.244375,12.7734375 C87.1975,12.6171875 87.1701562,12.4804688 87.1623437,12.3632812 C87.1545312,12.2460938 87.150625,12.140625 87.150625,12.046875 C87.150625,11.21875 87.5959375,10.65625 88.4865625,10.359375 C88.8146875,10.25 89.0842187,10.1640625 89.2951562,10.1015625 C89.5060937,10.0390625 89.6779687,9.98828125 89.8107812,9.94921875 C89.9435937,9.91015625 90.0451562,9.8828125 90.1154687,9.8671875 C90.1857812,9.8515625 90.2521875,9.84375 90.3146875,9.84375 C91.1584375,9.84375 91.7053125,10.3203125 91.9553125,11.2734375 C92.2834375,12.4921875 92.5920312,13.671875 92.8810937,14.8125 C93.1701562,15.953125 93.431875,17.078125 93.66625,18.1875 C93.79125,18.734375 94.0178125,19.0078125 94.3459375,19.0078125 C94.4396875,19.0078125 94.5490625,18.9882812 94.6740625,18.9492188 C94.7990625,18.9101562 94.9475,18.8515625 95.119375,18.7734375 C95.619375,18.5078125 96.2248437,18.1796875 96.9357812,17.7890625 C97.6467187,17.3984375 98.3889062,16.9648438 99.1623437,16.4882812 C99.9357812,16.0117188 100.701406,15.5078125 101.459219,14.9765625 C102.217031,14.4453125 102.896719,13.9140625 103.498281,13.3828125 C104.099844,12.8515625 104.588125,12.328125 104.963125,11.8125 C105.338125,11.296875 105.525625,10.8125 105.525625,10.359375 C105.525625,10.078125 105.482656,9.8203125 105.396719,9.5859375 C105.310781,9.3515625 105.150625,9.1484375 104.91625,8.9765625 C104.681875,8.8046875 104.365469,8.671875 103.967031,8.578125 C103.568594,8.484375 103.064687,8.4375 102.455312,8.4375 C101.861562,8.4375 101.240469,8.48828125 100.592031,8.58984375 C99.9435937,8.69140625 99.2990625,8.828125 98.6584375,9 C98.0178125,9.171875 97.385,9.3671875 96.76,9.5859375 C96.135,9.8046875 95.54125,10.03125 94.97875,10.265625 Z" id="Path"></path>
            <path d="M125.522813,22.265625 C125.475938,22.265625 125.401719,22.2734375 125.300156,22.2890625 C125.198594,22.3046875 125.089219,22.3203125 124.972031,22.3359375 C124.854844,22.3515625 124.741563,22.3671875 124.632188,22.3828125 C124.522813,22.3984375 124.436875,22.40625 124.374375,22.40625 C123.936875,22.40625 123.554063,22.2226562 123.225938,21.8554688 C122.897813,21.4882812 122.73375,21 122.73375,20.390625 C122.73375,19.984375 122.866563,19.59375 123.132188,19.21875 C123.397813,18.84375 123.811875,18.53125 124.374375,18.28125 C124.54625,18.203125 124.682969,18.1132812 124.784531,18.0117188 C124.886094,17.9101562 124.936875,17.765625 124.936875,17.578125 C124.936875,17.078125 124.925156,16.5429688 124.901719,15.9726562 C124.878281,15.4023438 124.843125,14.734375 124.79625,13.96875 C124.780625,13.8125 124.729844,13.6640625 124.643906,13.5234375 C124.557969,13.3828125 124.464219,13.2226562 124.362656,13.0429688 C124.261094,12.8632812 124.17125,12.6640625 124.093125,12.4453125 C124.015,12.2265625 123.975938,11.953125 123.975938,11.625 C123.975938,11.328125 124.018906,10.9882812 124.104844,10.6054688 C124.190781,10.2226562 124.370469,9.86328125 124.643906,9.52734375 C124.917344,9.19140625 125.300156,8.91015625 125.792344,8.68359375 C126.284531,8.45703125 126.929063,8.34375 127.725938,8.34375 C128.054062,8.34375 128.3275,8.375 128.54625,8.4375 C128.765,8.5 128.956406,8.57421875 129.120469,8.66015625 C129.284531,8.74609375 129.432969,8.8203125 129.565781,8.8828125 C129.698594,8.9453125 129.835312,8.9765625 129.975937,8.9765625 C130.225937,8.9765625 130.725938,8.9296875 131.475937,8.8359375 C132.225937,8.7421875 133.128281,8.609375 134.182969,8.4375 C135.237656,8.265625 136.401719,8.0703125 137.675156,7.8515625 C138.948594,7.6328125 140.241562,7.39453125 141.554062,7.13671875 C142.866562,6.87890625 144.147812,6.6171875 145.397812,6.3515625 C146.647812,6.0859375 147.780625,5.828125 148.79625,5.578125 C149.10875,5.5 149.382187,5.4609375 149.616562,5.4609375 C149.944687,5.4609375 150.206406,5.53515625 150.401719,5.68359375 C150.597031,5.83203125 150.741562,6.015625 150.835312,6.234375 C150.929062,6.453125 150.987656,6.69921875 151.011094,6.97265625 C151.034531,7.24609375 151.04625,7.5 151.04625,7.734375 C151.04625,8.140625 150.909531,8.51953125 150.636094,8.87109375 C150.362656,9.22265625 149.913437,9.5 149.288437,9.703125 C147.741562,10.15625 146.182969,10.5507812 144.612656,10.8867188 C143.042344,11.2226562 141.460312,11.5273438 139.866562,11.8007812 C138.272813,12.0742188 136.67125,12.3203125 135.061875,12.5390625 C133.4525,12.7578125 131.850937,12.9765625 130.257187,13.1953125 C130.038437,13.2265625 129.874375,13.3085938 129.765,13.4414062 C129.655625,13.5742188 129.600937,13.75 129.600937,13.96875 L129.600937,14.9296875 C129.600937,15.1953125 129.60875,15.46875 129.624375,15.75 C129.64,16.03125 129.675156,16.2890625 129.729844,16.5234375 C129.784531,16.7578125 129.85875,16.9492188 129.9525,17.0976562 C130.04625,17.2460938 130.17125,17.3203125 130.3275,17.3203125 C130.7025,17.3203125 131.284531,17.2421875 132.073594,17.0859375 C132.862656,16.9296875 133.753281,16.7382812 134.745469,16.5117188 C135.737656,16.2851562 136.776719,16.0351562 137.862656,15.7617188 C138.948594,15.4882812 139.975937,15.2382812 140.944687,15.0117188 C141.913437,14.7851562 142.765,14.59375 143.499375,14.4375 C144.23375,14.28125 144.749375,14.203125 145.04625,14.203125 C145.48375,14.203125 145.815781,14.3632812 146.042344,14.6835938 C146.268906,15.0039062 146.42125,15.40625 146.499375,15.890625 C146.499375,15.96875 146.507187,16.0390625 146.522812,16.1015625 C146.538437,16.1640625 146.54625,16.234375 146.54625,16.3125 C146.54625,16.765625 146.409531,17.1835938 146.136094,17.5664062 C145.862656,17.9492188 145.374375,18.234375 144.67125,18.421875 C144.48375,18.484375 144.10875,18.5820312 143.54625,18.7148438 C142.98375,18.8476562 142.319687,19.0039062 141.554062,19.1835938 C140.788437,19.3632812 139.960312,19.5546875 139.069687,19.7578125 C138.179062,19.9609375 137.304062,20.1601562 136.444687,20.3554688 C135.585312,20.5507812 134.784531,20.7382812 134.042344,20.9179688 C133.300156,21.0976562 132.694687,21.2421875 132.225937,21.3515625 C131.804062,21.4609375 131.550156,21.546875 131.464219,21.609375 C131.378281,21.671875 131.335312,21.75 131.335312,21.84375 C131.366562,22.1875 131.542344,22.5078125 131.862656,22.8046875 C132.182969,23.1015625 132.589219,23.375 133.081406,23.625 C133.573594,23.875 134.128281,24.1015625 134.745469,24.3046875 C135.362656,24.5078125 136.003281,24.6757812 136.667344,24.8085938 C137.331406,24.9414062 137.98375,25.046875 138.624375,25.125 C139.265,25.203125 139.85875,25.2421875 140.405625,25.2421875 C140.64,25.2421875 140.975937,25.2421875 141.413437,25.2421875 C141.850937,25.2421875 142.331406,25.2304688 142.854844,25.2070312 C143.378281,25.1835938 143.917344,25.1484375 144.472031,25.1015625 C145.026719,25.0546875 145.526719,24.9882812 145.972031,24.9023438 C146.417344,24.8164062 146.784531,24.7070312 147.073594,24.5742188 C147.362656,24.4414062 147.507187,24.28125 147.507187,24.09375 C147.507187,23.921875 147.448594,23.7421875 147.331406,23.5546875 C147.214219,23.3671875 147.155625,23.1640625 147.155625,22.9453125 C147.155625,22.6328125 147.241562,22.3242188 147.413437,22.0195312 C147.585312,21.7148438 147.807969,21.4414062 148.081406,21.1992188 C148.354844,20.9570312 148.667344,20.7617188 149.018906,20.6132812 C149.370469,20.4648438 149.725937,20.390625 150.085312,20.390625 C150.538437,20.390625 150.9525,20.4804688 151.3275,20.6601562 C151.7025,20.8398438 152.026719,21.0742188 152.300156,21.3632812 C152.573594,21.6523438 152.784531,21.984375 152.932969,22.359375 C153.081406,22.734375 153.155625,23.1171875 153.155625,23.5078125 C153.155625,24.5390625 152.776719,25.4296875 152.018906,26.1796875 C151.261094,26.9296875 150.272812,27.5507812 149.054062,28.0429688 C147.835312,28.5351562 146.460312,28.9023438 144.929062,29.1445312 C143.397812,29.3867188 141.85875,29.5078125 140.311875,29.5078125 C138.499375,29.5078125 136.843125,29.3867188 135.343125,29.1445312 C133.843125,28.9023438 132.499375,28.515625 131.311875,27.984375 C130.124375,27.453125 129.100937,26.7617188 128.241562,25.9101562 C127.382188,25.0585938 126.679063,24.0234375 126.132188,22.8046875 C125.944688,22.4453125 125.741563,22.265625 125.522813,22.265625 Z" id="Path"></path>
            <path d="M175.79875,15.2578125 C175.61125,15.2578125 175.447188,15.40625 175.306563,15.703125 C174.712813,16.859375 174.083906,17.90625 173.419844,18.84375 C172.755781,19.78125 172.087813,20.578125 171.415938,21.234375 C170.744063,21.890625 170.08,22.3945312 169.42375,22.7460938 C168.7675,23.0976562 168.150313,23.2734375 167.572188,23.2734375 C167.009688,23.2734375 166.490156,23.1523438 166.013594,22.9101562 C165.537031,22.6679688 165.021406,22.2109375 164.466719,21.5390625 C163.912031,20.8671875 163.279219,19.9375 162.568281,18.75 C161.857344,17.5625 160.98625,16.015625 159.955,14.109375 C159.783125,13.796875 159.607344,13.5664062 159.427656,13.4179688 C159.247969,13.2695312 159.087813,13.1953125 158.947188,13.1953125 C158.744063,13.1953125 158.556563,13.4101562 158.384688,13.8398438 C158.212813,14.2695312 158.064375,14.8710938 157.939375,15.6445312 C157.814375,16.4179688 157.716719,17.3476562 157.646406,18.4335938 C157.576094,19.5195312 157.540938,20.71875 157.540938,22.03125 C157.540938,22.8125 157.583906,23.59375 157.669844,24.375 C157.755781,25.15625 157.79875,25.9609375 157.79875,26.7890625 C157.79875,27.0703125 157.720625,27.3320312 157.564375,27.5742188 C157.408125,27.8164062 157.201094,28.0273438 156.943281,28.2070312 C156.685469,28.3867188 156.380781,28.53125 156.029219,28.640625 C155.677656,28.75 155.306563,28.8046875 154.915938,28.8046875 C154.134688,28.8046875 153.572188,28.3359375 153.228438,27.3984375 C152.884688,26.4609375 152.712813,24.9609375 152.712813,22.8984375 C152.712813,20.2890625 152.857344,17.9179688 153.146406,15.7851562 C153.435469,13.6523438 153.849531,11.8242188 154.388594,10.3007812 C154.927656,8.77734375 155.568281,7.59765625 156.310469,6.76171875 C157.052656,5.92578125 157.884688,5.5078125 158.806563,5.5078125 C159.619063,5.5078125 160.396406,5.97265625 161.138594,6.90234375 C161.880781,7.83203125 162.681563,9.3359375 163.540938,11.4140625 C163.884688,12.2578125 164.255781,13.046875 164.654219,13.78125 C165.052656,14.515625 165.451094,15.1523438 165.849531,15.6914062 C166.247969,16.2304688 166.634688,16.6523438 167.009688,16.9570312 C167.384688,17.2617188 167.720625,17.4140625 168.0175,17.4140625 C168.314375,17.4140625 168.599531,17.3476562 168.872969,17.2148438 C169.146406,17.0820312 169.458906,16.7929688 169.810469,16.3476562 C170.162031,15.9023438 170.576094,15.25 171.052656,14.390625 C171.529219,13.53125 172.119063,12.3828125 172.822188,10.9453125 C173.197188,10.1953125 173.533125,9.5703125 173.83,9.0703125 C174.126875,8.5703125 174.42375,8.16796875 174.720625,7.86328125 C175.0175,7.55859375 175.33,7.33984375 175.658125,7.20703125 C175.98625,7.07421875 176.353438,7.0078125 176.759688,7.0078125 C177.244063,7.0078125 177.720625,7.265625 178.189375,7.78125 C178.658125,8.296875 179.115156,8.984375 179.560469,9.84375 C180.005781,10.703125 180.439375,11.703125 180.86125,12.84375 C181.283125,13.984375 181.693281,15.1796875 182.091719,16.4296875 C182.490156,17.6796875 182.880781,18.9492188 183.263594,20.2382812 C183.646406,21.5273438 184.0175,22.75 184.376875,23.90625 C184.470625,24.25 184.537031,24.4882812 184.576094,24.6210938 C184.615156,24.7539062 184.634688,24.9140625 184.634688,25.1015625 C184.634688,25.3671875 184.552656,25.6289062 184.388594,25.8867188 C184.224531,26.1445312 184.009688,26.375 183.744063,26.578125 C183.478438,26.78125 183.177656,26.9453125 182.841719,27.0703125 C182.505781,27.1953125 182.17375,27.2578125 181.845625,27.2578125 C181.408125,27.2578125 181.068281,27.2070312 180.826094,27.1054688 C180.583906,27.0039062 180.3925,26.8203125 180.251875,26.5546875 C180.17375,26.4140625 180.040938,26.0390625 179.853438,25.4296875 C179.665938,24.8203125 179.443281,24.0976562 179.185469,23.2617188 C178.927656,22.4257812 178.646406,21.5390625 178.341719,20.6015625 C178.037031,19.6640625 177.732344,18.8007812 177.427656,18.0117188 C177.122969,17.2226562 176.83,16.5664062 176.54875,16.0429688 C176.2675,15.5195312 176.0175,15.2578125 175.79875,15.2578125 Z" id="Path"></path>
            <path d="M185.340313,23.3671875 C185.074688,23.3671875 184.875469,23.234375 184.742656,22.96875 C184.609844,22.703125 184.543438,22.328125 184.543438,21.84375 C184.543438,21.765625 184.543438,21.6757812 184.543438,21.5742188 C184.543438,21.4726562 184.559063,21.2734375 184.590313,20.9765625 C184.637188,19.8515625 185.191875,19.1953125 186.254375,19.0078125 L186.793438,18.9609375 C187.152813,18.9140625 187.434063,18.8007812 187.637188,18.6210938 C187.840313,18.4414062 187.98875,18.1875 188.0825,17.859375 C188.348125,16.96875 188.61375,16.0703125 188.879375,15.1640625 C189.145,14.2578125 189.42625,13.359375 189.723125,12.46875 C189.879375,11.96875 190.039531,11.4335938 190.203594,10.8632812 C190.367656,10.2929688 190.547344,9.7265625 190.742656,9.1640625 C190.937969,8.6015625 191.164531,8.046875 191.422344,7.5 C191.680156,6.953125 191.973125,6.453125 192.30125,6 C192.441875,5.8125 192.637188,5.6171875 192.887188,5.4140625 C193.137188,5.2109375 193.422344,5.02734375 193.742656,4.86328125 C194.062969,4.69921875 194.406719,4.56640625 194.773906,4.46484375 C195.141094,4.36328125 195.504375,4.3125 195.86375,4.3125 C196.3325,4.3125 196.793438,4.4609375 197.246563,4.7578125 C197.855938,5.1796875 198.4575,5.6875 199.05125,6.28125 C199.645,6.875 200.309063,7.6328125 201.043438,8.5546875 C201.777813,9.4765625 202.629375,10.5898438 203.598125,11.8945312 C204.566875,13.1992188 205.730938,14.7734375 207.090313,16.6171875 C207.293438,16.8515625 207.508281,17.0273438 207.734844,17.1445312 C207.961406,17.2617188 208.230938,17.3203125 208.543438,17.3203125 L209.879375,17.3203125 C210.42625,17.3203125 210.852031,17.4492188 211.156719,17.7070312 C211.461406,17.9648438 211.61375,18.3203125 211.61375,18.7734375 C211.61375,18.8671875 211.609844,18.9765625 211.602031,19.1015625 C211.594219,19.2265625 211.566875,19.3515625 211.52,19.4765625 L211.074688,20.7890625 C211.043438,20.9140625 211.02,21.0234375 211.004375,21.1171875 C210.98875,21.2109375 210.980938,21.3046875 210.980938,21.3984375 C210.980938,21.7265625 211.090313,22.0625 211.309063,22.40625 L213.816875,25.828125 C214.098125,26.25 214.23875,26.6484375 214.23875,27.0234375 C214.23875,27.5859375 213.918438,28.078125 213.277813,28.5 L212.387188,29.1328125 C212.168438,29.2734375 211.961406,29.3828125 211.766094,29.4609375 C211.570781,29.5390625 211.371563,29.578125 211.168438,29.578125 C210.887188,29.578125 210.625469,29.4960938 210.383281,29.3320312 C210.141094,29.1679688 209.910625,28.9453125 209.691875,28.6640625 C208.941875,27.6015625 208.187969,26.5546875 207.430156,25.5234375 C206.672344,24.4921875 205.902813,23.46875 205.121563,22.453125 C204.762188,21.953125 204.285625,21.703125 203.691875,21.703125 C201.785625,21.78125 199.898906,21.8867188 198.031719,22.0195312 C196.164531,22.1523438 194.293438,22.3125 192.418438,22.5 C191.746563,22.5625 191.324688,22.921875 191.152813,23.578125 L190.098125,27.4453125 C189.816875,28.4765625 189.191875,28.9921875 188.223125,28.9921875 L187.848125,28.9921875 L187.121563,28.8984375 C186.590313,28.8515625 186.187969,28.6875 185.914531,28.40625 C185.641094,28.125 185.504375,27.7578125 185.504375,27.3046875 C185.504375,27.2109375 185.512188,27.109375 185.527813,27 C185.543438,26.890625 185.566875,26.7734375 185.598125,26.6484375 C185.67625,26.3359375 185.758281,26.015625 185.844219,25.6875 C185.930156,25.359375 186.02,25.0390625 186.11375,24.7265625 C186.145,24.6015625 186.168438,24.4882812 186.184063,24.3867188 C186.199688,24.2851562 186.2075,24.1875 186.2075,24.09375 C186.2075,23.609375 186.02,23.3671875 185.645,23.3671875 L185.340313,23.3671875 Z M196.496563,10.9921875 C196.340313,10.8515625 196.199688,10.734375 196.074688,10.640625 C195.949688,10.546875 195.816875,10.5 195.67625,10.5 C195.285625,10.5 195.012188,10.7734375 194.855938,11.3203125 C194.543438,12.2421875 194.242656,13.1523438 193.953594,14.0507812 C193.664531,14.9492188 193.371563,15.8671875 193.074688,16.8046875 C193.043438,16.8828125 193.027813,16.953125 193.027813,17.015625 C193.027813,17.078125 193.027813,17.1484375 193.027813,17.2265625 C193.027813,17.8046875 193.3325,18.09375 193.941875,18.09375 L194.17625,18.09375 C195.11375,17.96875 196.05125,17.8710938 196.98875,17.8007812 C197.92625,17.7304688 198.86375,17.671875 199.80125,17.625 C200.11375,17.59375 200.359844,17.5117188 200.539531,17.3789062 C200.719219,17.2460938 200.809063,17.0703125 200.809063,16.8515625 C200.809063,16.6484375 200.715313,16.40625 200.527813,16.125 C199.871563,15.25 199.211406,14.3867188 198.547344,13.5351562 C197.883281,12.6835938 197.199688,11.8359375 196.496563,10.9921875 Z" id="Shape"></path>
            <path d="M214.006875,6.140625 C214.006875,5.859375 214.077188,5.59765625 214.217813,5.35546875 C214.358438,5.11328125 214.55375,4.90234375 214.80375,4.72265625 C215.05375,4.54296875 215.346719,4.3984375 215.682656,4.2890625 C216.018594,4.1796875 216.374063,4.125 216.749063,4.125 C217.483438,4.125 218.0225,4.2421875 218.36625,4.4765625 C218.71,4.7109375 218.920938,5.078125 218.999063,5.578125 C219.264688,7.65625 219.487344,9.62109375 219.667031,11.4726562 C219.846719,13.3242188 219.99125,15.0898438 220.100625,16.7695312 C220.21,18.4492188 220.288125,20.0585938 220.335,21.5976562 C220.381875,23.1367188 220.405313,24.625 220.405313,26.0625 C220.405313,26.84375 220.127969,27.4296875 219.573281,27.8203125 C219.018594,28.2109375 218.21,28.40625 217.1475,28.40625 C216.663125,28.40625 216.284219,28.2929688 216.010781,28.0664062 C215.737344,27.8398438 215.600625,27.5078125 215.600625,27.0703125 C215.600625,24.3828125 215.518594,21.8632812 215.354531,19.5117188 C215.190469,17.1601562 215.006875,15.0703125 214.80375,13.2421875 C214.600625,11.4140625 214.417031,9.88671875 214.252969,8.66015625 C214.088906,7.43359375 214.006875,6.59375 214.006875,6.140625 Z" id="Path"></path>
            <path d="M230.603125,29.625 C230.15,29.703125 229.74375,29.7929688 229.384375,29.8945312 C229.025,29.9960938 228.579688,30.046875 228.048438,30.046875 C227.470313,30.046875 227.025,29.8828125 226.7125,29.5546875 C226.4,29.2265625 226.24375,28.859375 226.24375,28.453125 C226.24375,28.125 226.298438,27.6992188 226.407813,27.1757812 C226.517188,26.6523438 226.571875,26.125 226.571875,25.59375 C226.4625,23.578125 226.317969,21.5820312 226.138281,19.6054688 C225.958594,17.6289062 225.782813,15.8203125 225.610938,14.1796875 C225.439063,12.5390625 225.290625,11.1367188 225.165625,9.97265625 C225.040625,8.80859375 224.978125,8.015625 224.978125,7.59375 C224.978125,7.3125 225.048438,7.05078125 225.189063,6.80859375 C225.329688,6.56640625 225.525,6.3515625 225.775,6.1640625 C226.025,5.9765625 226.317969,5.83203125 226.653906,5.73046875 C226.989844,5.62890625 227.345313,5.578125 227.720313,5.578125 C228.454688,5.578125 228.99375,5.69140625 229.3375,5.91796875 C229.68125,6.14453125 229.892188,6.5078125 229.970313,7.0078125 C230.407813,10.3671875 230.724219,13.4492188 230.919531,16.2539062 C231.114844,19.0585938 231.251563,21.6875 231.329688,24.140625 C231.329688,24.5 231.427344,24.7734375 231.622656,24.9609375 C231.817969,25.1484375 232.071875,25.2421875 232.384375,25.2421875 C233.009375,25.2421875 233.642188,25.2070312 234.282813,25.1367188 C234.923438,25.0664062 235.564063,24.9921875 236.204688,24.9140625 C236.845313,24.8359375 237.482031,24.7617188 238.114844,24.6914062 C238.747656,24.6210938 239.360938,24.5859375 239.954688,24.5859375 C240.345313,24.5859375 240.661719,24.6328125 240.903906,24.7265625 C241.146094,24.8203125 241.333594,24.9453125 241.466406,25.1015625 C241.599219,25.2578125 241.685156,25.4335938 241.724219,25.6289062 C241.763281,25.8242188 241.782813,26.015625 241.782813,26.203125 C241.782813,26.5 241.751563,26.796875 241.689063,27.09375 C241.626563,27.390625 241.517188,27.6601562 241.360938,27.9023438 C241.204688,28.1445312 240.99375,28.3476562 240.728125,28.5117188 C240.4625,28.6757812 240.126563,28.7734375 239.720313,28.8046875 C237.798438,28.9921875 236.044531,29.1328125 234.458594,29.2265625 C232.872656,29.3203125 231.5875,29.453125 230.603125,29.625 Z" id="Path"></path>
            <path d="M251.18625,7.2421875 C251.18625,6.2421875 251.725313,5.6328125 252.803438,5.4140625 L253.81125,5.2265625 C253.920625,5.1953125 254.018281,5.1796875 254.104219,5.1796875 C254.190156,5.1796875 254.272188,5.1796875 254.350313,5.1796875 C255.303438,5.1796875 255.865938,5.7265625 256.037812,6.8203125 C256.100312,7.3515625 256.178437,8.0234375 256.272187,8.8359375 C256.365937,9.6484375 256.487031,10.5390625 256.635469,11.5078125 C256.783906,12.4765625 256.955781,13.4921875 257.151094,14.5546875 C257.346406,15.6171875 257.569062,16.6601562 257.819062,17.6835938 C258.069062,18.7070312 258.350312,19.6796875 258.662812,20.6015625 C258.975312,21.5234375 259.326875,22.3359375 259.7175,23.0390625 C260.108125,23.7421875 260.533906,24.3007812 260.994844,24.7148438 C261.455781,25.1289062 261.959687,25.3359375 262.506562,25.3359375 C262.897187,25.3359375 263.291719,25.21875 263.690156,24.984375 C264.088594,24.75 264.483125,24.4414062 264.87375,24.0585938 C265.264375,23.6757812 265.639375,23.2421875 265.99875,22.7578125 C266.358125,22.2734375 266.68625,21.78125 266.983125,21.28125 C267.28,20.78125 267.549531,20.3007812 267.791719,19.8398438 C268.033906,19.3789062 268.225312,18.9765625 268.365937,18.6328125 C268.459687,18.3359375 268.506562,18.0625 268.506562,17.8125 C268.506562,17.6875 268.49875,17.5625 268.483125,17.4375 C268.4675,17.3125 268.444062,17.1796875 268.412812,17.0390625 C268.115937,16.0703125 267.889375,15.1015625 267.733125,14.1328125 C267.576875,13.1640625 267.49875,12.1171875 267.49875,10.9921875 C267.49875,10.3359375 267.553437,9.6875 267.662812,9.046875 C267.772187,8.40625 267.959687,7.8203125 268.225312,7.2890625 C268.365937,7.0078125 268.576875,6.765625 268.858125,6.5625 C269.139375,6.359375 269.447969,6.1953125 269.783906,6.0703125 C270.119844,5.9453125 270.471406,5.85546875 270.838594,5.80078125 C271.205781,5.74609375 271.545625,5.71875 271.858125,5.71875 C272.201875,5.71875 272.514375,5.78515625 272.795625,5.91796875 C273.076875,6.05078125 273.326875,6.2734375 273.545625,6.5859375 C273.983125,7.1796875 274.291719,7.859375 274.471406,8.625 C274.651094,9.390625 274.740937,10.1640625 274.740937,10.9453125 C274.740937,11.7890625 274.662812,12.6523438 274.506562,13.5351562 C274.350313,14.4179688 274.162812,15.296875 273.944062,16.171875 C273.834687,16.390625 273.78,16.6328125 273.78,16.8984375 C273.78,17.0234375 273.799531,17.15625 273.838594,17.296875 C273.877656,17.4375 273.928437,17.59375 273.990937,17.765625 C274.272187,18.5 274.604219,19.2460938 274.987031,20.0039062 C275.369844,20.7617188 275.81125,21.4453125 276.31125,22.0546875 C276.81125,22.6640625 277.37375,23.1640625 277.99875,23.5546875 C278.62375,23.9453125 279.334687,24.140625 280.131562,24.140625 C280.834687,24.140625 281.4675,23.84375 282.03,23.25 C282.5925,22.65625 283.065156,21.90625 283.447969,21 C283.830781,20.09375 284.12375,19.1054688 284.326875,18.0351562 C284.53,16.9648438 284.631562,15.9453125 284.631562,14.9765625 C284.631562,13.9453125 284.5925,12.9296875 284.514375,11.9296875 C284.43625,10.9296875 284.334687,10.0078125 284.209687,9.1640625 C284.178437,9.0859375 284.162812,9.0078125 284.162812,8.9296875 C284.162812,8.8515625 284.162812,8.7734375 284.162812,8.6953125 C284.162812,7.8046875 284.639375,7.1953125 285.5925,6.8671875 L286.647187,6.515625 C286.944062,6.421875 287.2175,6.375 287.4675,6.375 C288.295625,6.375 288.795625,6.890625 288.9675,7.921875 C289.139375,8.890625 289.276094,9.859375 289.377656,10.828125 C289.479219,11.796875 289.53,12.765625 289.53,13.734375 C289.53,15.796875 289.287812,17.734375 288.803437,19.546875 C288.319062,21.359375 287.643281,22.9414062 286.776094,24.2929688 C285.908906,25.6445312 284.881562,26.7109375 283.694062,27.4921875 C282.506562,28.2734375 281.201875,28.6640625 279.78,28.6640625 C278.389375,28.6640625 276.990937,28.2460938 275.584687,27.4101562 C274.178437,26.5742188 272.905,25.2421875 271.764375,23.4140625 C271.545625,23.0078125 271.295625,22.8046875 271.014375,22.8046875 C270.74875,22.8046875 270.506562,23.0078125 270.287812,23.4140625 C269.740937,24.3828125 269.139375,25.2773438 268.483125,26.0976562 C267.826875,26.9179688 267.131562,27.625 266.397187,28.21875 C265.662812,28.8125 264.897187,29.2734375 264.100312,29.6015625 C263.303438,29.9296875 262.49875,30.09375 261.68625,30.09375 C260.37375,30.09375 259.221406,29.7382812 258.229219,29.0273438 C257.237031,28.3164062 256.377656,27.3671875 255.651094,26.1796875 C254.924531,24.9921875 254.31125,23.6289062 253.81125,22.0898438 C253.31125,20.5507812 252.893281,18.9492188 252.557344,17.2851562 C252.221406,15.6210938 251.947969,13.953125 251.737031,12.28125 C251.526094,10.609375 251.3425,9.046875 251.18625,7.59375 L251.18625,7.2421875 Z" id="Path"></path>
            <path d="M303.665313,30.9609375 C301.962188,30.9609375 300.395781,30.671875 298.966094,30.09375 C297.536406,29.515625 296.305938,28.7070312 295.274688,27.6679688 C294.243438,26.6289062 293.43875,25.390625 292.860625,23.953125 C292.2825,22.515625 291.993438,20.9296875 291.993438,19.1953125 C291.993438,18.2578125 292.075469,17.3554688 292.239531,16.4882812 C292.403594,15.6210938 292.62625,14.8125 292.9075,14.0625 C293.0325,13.765625 293.095,13.5546875 293.095,13.4296875 C293.095,13.2734375 293.055938,13.125 292.977813,12.984375 C292.899688,12.84375 292.81375,12.6953125 292.72,12.5390625 C292.62625,12.3828125 292.540313,12.21875 292.462188,12.046875 C292.384063,11.875 292.345,11.6796875 292.345,11.4609375 C292.345,10.8046875 292.72,10.1601562 293.47,9.52734375 C294.22,8.89453125 295.212188,8.33203125 296.446563,7.83984375 C297.680938,7.34765625 299.079375,6.94921875 300.641875,6.64453125 C302.204375,6.33984375 303.805938,6.1875 305.446563,6.1875 C307.462188,6.1875 309.278594,6.4453125 310.895781,6.9609375 C312.512969,7.4765625 313.887969,8.21484375 315.020781,9.17578125 C316.153594,10.1367188 317.024688,11.3046875 317.634063,12.6796875 C318.243438,14.0546875 318.548125,15.6015625 318.548125,17.3203125 C318.548125,19.2421875 318.165313,21.0351562 317.399688,22.6992188 C316.634063,24.3632812 315.583281,25.8046875 314.247344,27.0234375 C312.911406,28.2421875 311.337188,29.203125 309.524688,29.90625 C307.712188,30.609375 305.759063,30.9609375 303.665313,30.9609375 Z M313.837188,18.234375 C313.837188,17.015625 313.62625,15.921875 313.204375,14.953125 C312.7825,13.984375 312.173125,13.1679688 311.37625,12.5039062 C310.579375,11.8398438 309.598906,11.3320312 308.434844,10.9804688 C307.270781,10.6289062 305.954375,10.453125 304.485625,10.453125 C301.9075,10.453125 299.966094,11.1054688 298.661406,12.4101562 C297.356719,13.7148438 296.704375,15.65625 296.704375,18.234375 C296.704375,19.484375 296.899688,20.6289062 297.290313,21.6679688 C297.680938,22.7070312 298.227813,23.5976562 298.930938,24.3398438 C299.634063,25.0820312 300.473906,25.6601562 301.450469,26.0742188 C302.427031,26.4882812 303.50125,26.6953125 304.673125,26.6953125 C306.016875,26.6953125 307.25125,26.4882812 308.37625,26.0742188 C309.50125,25.6601562 310.466094,25.078125 311.270781,24.328125 C312.075469,23.578125 312.704375,22.6835938 313.1575,21.6445312 C313.610625,20.6054688 313.837188,19.46875 313.837188,18.234375 Z" id="Shape"></path>
            <path d="M326.285,16.3125 C326.285,16.96875 326.31625,17.6484375 326.37875,18.3515625 C326.44125,19.0546875 326.515469,19.7578125 326.601406,20.4609375 C326.687344,21.1640625 326.761563,21.8710938 326.824063,22.5820312 C326.886563,23.2929688 326.917813,23.9921875 326.917813,24.6796875 C326.917813,25.4453125 326.652188,26.0664062 326.120938,26.5429688 C325.589688,27.0195312 324.87875,27.2578125 323.988125,27.2578125 C323.550625,27.2578125 323.140469,27.125 322.757656,26.859375 C322.374844,26.59375 322.16,26.171875 322.113125,25.59375 C322.035,24.859375 321.960781,24.0351562 321.890469,23.1210938 C321.820156,22.2070312 321.757656,21.2617188 321.702969,20.2851562 C321.648281,19.3085938 321.5975,18.3242188 321.550625,17.3320312 C321.50375,16.3398438 321.464688,15.3867188 321.433438,14.4726562 C321.402188,13.5585938 321.37875,12.7148438 321.363125,11.9414062 C321.3475,11.1679688 321.339688,10.515625 321.339688,9.984375 C321.339688,9.515625 321.370938,9.0703125 321.433438,8.6484375 C321.495938,8.2265625 321.62875,7.859375 321.831875,7.546875 C322.035,7.234375 322.312344,6.984375 322.663906,6.796875 C323.015469,6.609375 323.488125,6.515625 324.081875,6.515625 C324.535,6.515625 325.042813,6.67578125 325.605313,6.99609375 C326.167813,7.31640625 326.773281,7.75 327.421719,8.296875 C328.070156,8.84375 328.761563,9.47265625 329.495938,10.1835938 C330.230313,10.8945312 330.988125,11.640625 331.769375,12.421875 C332.550625,13.203125 333.351406,13.9960938 334.171719,14.8007812 C334.992031,15.6054687 335.824063,16.3671875 336.667813,17.0859375 C337.042813,17.4140625 337.468594,17.796875 337.945156,18.234375 C338.421719,18.671875 338.913906,19.0859375 339.421719,19.4765625 C339.929531,19.8671875 340.437344,20.1992188 340.945156,20.4726562 C341.452969,20.7460938 341.94125,20.8828125 342.41,20.8828125 C342.8475,20.8828125 343.132656,20.6914062 343.265469,20.3085938 C343.398281,19.9257812 343.464688,19.3125 343.464688,18.46875 C343.464688,17.84375 343.413906,17.0703125 343.312344,16.1484375 C343.210781,15.2265625 343.06625,14.2421875 342.87875,13.1953125 C342.69125,12.1484375 342.456875,11.0976562 342.175625,10.0429688 C341.894375,8.98828125 341.574063,8.0234375 341.214688,7.1484375 C341.136563,6.9609375 341.062344,6.77734375 340.992031,6.59765625 C340.921719,6.41796875 340.886563,6.21875 340.886563,6 C340.886563,5.640625 341.00375,5.3203125 341.238125,5.0390625 C341.4725,4.7578125 341.75375,4.5234375 342.081875,4.3359375 C342.41,4.1484375 342.75375,4.00390625 343.113125,3.90234375 C343.4725,3.80078125 343.769375,3.75 344.00375,3.75 C344.519375,3.75 344.980313,4.02734375 345.386563,4.58203125 C345.792813,5.13671875 346.148281,5.85546875 346.452969,6.73828125 C346.757656,7.62109375 347.011563,8.61328125 347.214688,9.71484375 C347.417813,10.8164062 347.585781,11.921875 347.718594,13.03125 C347.851406,14.140625 347.945156,15.1992188 347.999844,16.2070312 C348.054531,17.2148438 348.081875,18.0546875 348.081875,18.7265625 C348.081875,19.9921875 348.031094,21.1054688 347.929531,22.0664062 C347.827969,23.0273438 347.617031,23.8359375 347.296719,24.4921875 C346.976406,25.1484375 346.511563,25.6445312 345.902188,25.9804688 C345.292813,26.3164062 344.480313,26.484375 343.464688,26.484375 C342.652188,26.484375 341.800625,26.3164062 340.91,25.9804688 C340.019375,25.6445312 339.117031,25.1914062 338.202969,24.6210938 C337.288906,24.0507812 336.367031,23.3984375 335.437344,22.6640625 C334.507656,21.9296875 333.5975,21.1640625 332.706875,20.3671875 C331.81625,19.5703125 330.952969,18.7734375 330.117031,17.9765625 C329.281094,17.1796875 328.50375,16.4375 327.785,15.75 C327.488125,15.453125 327.214688,15.3046875 326.964688,15.3046875 C326.745938,15.3046875 326.577969,15.3945312 326.460781,15.5742188 C326.343594,15.7539062 326.285,16 326.285,16.3125 Z" id="Path"></path>
            <path d="M361.396875,5.2734375 C361.396875,5.4453125 361.279688,5.8515625 361.045313,6.4921875 C360.810938,7.1328125 360.502344,7.8828125 360.119531,8.7421875 C359.736719,9.6015625 359.295313,10.5078125 358.795313,11.4609375 C358.295313,12.4140625 357.7875,13.2890625 357.271875,14.0859375 C356.75625,14.8828125 356.252344,15.5429688 355.760156,16.0664062 C355.267969,16.5898438 354.826563,16.8515625 354.435938,16.8515625 C354.248438,16.8515625 354.014063,16.796875 353.732813,16.6875 C353.451563,16.578125 353.182031,16.4414062 352.924219,16.2773438 C352.666406,16.1132812 352.44375,15.9335938 352.25625,15.7382812 C352.06875,15.5429688 351.975,15.3515625 351.975,15.1640625 C351.975,15.0078125 352.135156,14.6210938 352.455469,14.0039062 C352.775781,13.3867188 353.170313,12.5898438 353.639063,11.6132812 C354.107813,10.6367188 354.607813,9.515625 355.139063,8.25 C355.670313,6.984375 356.139063,5.625 356.545313,4.171875 C356.639063,3.859375 356.771875,3.61328125 356.94375,3.43359375 C357.115625,3.25390625 357.35,3.1640625 357.646875,3.1640625 C357.928125,3.1640625 358.279688,3.22265625 358.701563,3.33984375 C359.123438,3.45703125 359.533594,3.61328125 359.932031,3.80859375 C360.330469,4.00390625 360.674219,4.2265625 360.963281,4.4765625 C361.252344,4.7265625 361.396875,4.9921875 361.396875,5.2734375 Z" id="Path"></path>
            <path d="M370.329063,8.5546875 C370.204063,8.5546875 369.965781,8.58203125 369.614219,8.63671875 C369.262656,8.69140625 368.8525,8.7578125 368.38375,8.8359375 C367.915,8.9140625 367.422813,9.00390625 366.907188,9.10546875 C366.391563,9.20703125 365.907188,9.296875 365.454063,9.375 C365.000938,9.453125 364.606406,9.51953125 364.270469,9.57421875 C363.934531,9.62890625 363.711875,9.65625 363.6025,9.65625 C362.555625,9.65625 362.032188,9.109375 362.032188,8.015625 C362.032188,7.71875 362.059531,7.42578125 362.114219,7.13671875 C362.168906,6.84765625 362.266563,6.58203125 362.407188,6.33984375 C362.547813,6.09765625 362.735313,5.890625 362.969688,5.71875 C363.204063,5.546875 363.500938,5.4296875 363.860313,5.3671875 C365.688438,5.0859375 367.50875,4.7890625 369.32125,4.4765625 C371.13375,4.1640625 372.961875,3.8359375 374.805625,3.4921875 C375.211875,3.4140625 375.579063,3.33984375 375.907188,3.26953125 C376.235313,3.19921875 376.6025,3.1015625 377.00875,2.9765625 C377.44625,2.8515625 377.922813,2.73046875 378.438438,2.61328125 C378.954063,2.49609375 379.473594,2.390625 379.997031,2.296875 C380.520469,2.203125 381.028281,2.125 381.520469,2.0625 C382.012656,2 382.461875,1.96875 382.868125,1.96875 C383.368125,1.96875 383.747031,2.12890625 384.004844,2.44921875 C384.262656,2.76953125 384.391563,3.21875 384.391563,3.796875 C384.391563,4.09375 384.368125,4.37890625 384.32125,4.65234375 C384.274375,4.92578125 384.188438,5.171875 384.063438,5.390625 C383.938438,5.609375 383.766563,5.7890625 383.547813,5.9296875 C383.329063,6.0703125 383.047813,6.15625 382.704063,6.1875 C381.813438,6.3125 380.860313,6.46484375 379.844688,6.64453125 C378.829063,6.82421875 377.94625,7.0234375 377.19625,7.2421875 C376.88375,7.3359375 376.649375,7.48828125 376.493125,7.69921875 C376.336875,7.91015625 376.235313,8.171875 376.188438,8.484375 C376.141563,8.78125 376.114219,9.08203125 376.106406,9.38671875 C376.098594,9.69140625 376.094688,9.984375 376.094688,10.265625 C376.094688,10.921875 376.122031,11.578125 376.176719,12.234375 C376.231406,12.890625 376.282188,13.546875 376.329063,14.203125 C376.469688,16.453125 376.684531,18.6796875 376.973594,20.8828125 C377.262656,23.0859375 377.579063,25.3125 377.922813,27.5625 C377.954063,27.640625 377.969688,27.71875 377.969688,27.796875 C377.969688,27.875 377.969688,27.953125 377.969688,28.03125 C377.969688,28.890625 377.485313,29.5 376.516563,29.859375 L375.461875,30.1875 C375.180625,30.28125 374.907188,30.328125 374.641563,30.328125 C374.235313,30.328125 373.907188,30.1992188 373.657188,29.9414062 C373.407188,29.6835938 373.243125,29.3046875 373.165,28.8046875 C372.7275,26.1171875 372.344688,23.4414062 372.016563,20.7773438 C371.688438,18.1132812 371.4775,15.4296875 371.38375,12.7265625 C371.3525,12.2890625 371.329063,11.8125 371.313438,11.296875 C371.297813,10.78125 371.29,10.25 371.29,9.703125 C371.29,8.9375 370.969688,8.5546875 370.329063,8.5546875 Z" id="Path"></path>
            <path d="M397.896563,30.09375 C397.646563,27.21875 397.322344,24.375 396.923906,21.5625 C396.525469,18.75 396.045,15.9140625 395.4825,13.0546875 C395.435625,12.8671875 395.377031,12.7148438 395.306719,12.5976562 C395.236406,12.4804688 395.13875,12.421875 395.01375,12.421875 C394.92,12.421875 394.814531,12.4296875 394.697344,12.4453125 C394.580156,12.4609375 394.459063,12.46875 394.334063,12.46875 C393.740313,12.46875 393.279375,12.3203125 392.95125,12.0234375 C392.623125,11.7265625 392.459063,11.3515625 392.459063,10.8984375 C392.459063,10.3828125 392.673906,9.8828125 393.103594,9.3984375 C393.533281,8.9140625 394.099688,8.45703125 394.802813,8.02734375 C395.505938,7.59765625 396.310625,7.203125 397.216875,6.84375 C398.123125,6.484375 399.056719,6.17578125 400.017656,5.91796875 C400.978594,5.66015625 401.927813,5.45703125 402.865313,5.30859375 C403.802813,5.16015625 404.654375,5.0859375 405.42,5.0859375 C406.810625,5.0859375 408.009844,5.2578125 409.017656,5.6015625 C410.025469,5.9453125 410.853594,6.3984375 411.502031,6.9609375 C412.150469,7.5234375 412.627031,8.171875 412.931719,8.90625 C413.236406,9.640625 413.38875,10.3984375 413.38875,11.1796875 C413.38875,11.9609375 413.220781,12.8164062 412.884844,13.7460938 C412.548906,14.6757812 411.9825,15.5625 411.185625,16.40625 C411.091875,16.515625 411.029375,16.6054688 410.998125,16.6757812 C410.966875,16.7460938 410.95125,16.8203125 410.95125,16.8984375 C410.95125,17.0390625 411.1075,17.1328125 411.42,17.1796875 C412.32625,17.2578125 413.205156,17.4765625 414.056719,17.8359375 C414.908281,18.1953125 415.654375,18.6601562 416.295,19.2304688 C416.935625,19.8007812 417.45125,20.46875 417.841875,21.234375 C418.2325,22 418.427813,22.8125 418.427813,23.671875 C418.427813,24.875 418.197344,25.9257812 417.736406,26.8242188 C417.275469,27.7226562 416.63875,28.46875 415.82625,29.0625 C415.01375,29.65625 414.048906,30.0976562 412.931719,30.3867188 C411.814531,30.6757812 410.6075,30.8203125 409.310625,30.8203125 C408.295,30.8203125 407.275469,30.7304688 406.252031,30.5507812 C405.228594,30.3710938 404.2325,30.140625 403.26375,29.859375 C403.20125,29.828125 403.1075,29.8125 402.9825,29.8125 C402.716875,29.8125 402.505938,29.96875 402.349688,30.28125 C402.084063,30.8125 401.705156,31.2265625 401.212969,31.5234375 C400.720781,31.8203125 400.224688,31.96875 399.724688,31.96875 C399.271563,31.96875 398.873125,31.8242188 398.529375,31.5351562 C398.185625,31.2460938 397.974688,30.765625 397.896563,30.09375 Z M402.443438,21.1640625 C402.099688,21.2890625 401.927813,21.53125 401.927813,21.890625 C401.927813,21.9375 401.947344,22.109375 401.986406,22.40625 C402.025469,22.703125 402.07625,23.0234375 402.13875,23.3671875 C402.20125,23.7734375 402.271563,24.2109375 402.349688,24.6796875 C402.396563,25.0859375 402.6075,25.3359375 402.9825,25.4296875 C403.466875,25.5703125 403.998125,25.7148438 404.57625,25.8632812 C405.154375,26.0117188 405.755938,26.1484375 406.380938,26.2734375 C407.005938,26.3984375 407.63875,26.5 408.279375,26.578125 C408.92,26.65625 409.537188,26.6953125 410.130938,26.6953125 C410.584063,26.6953125 411.021563,26.6445312 411.443438,26.5429688 C411.865313,26.4414062 412.240313,26.28125 412.568438,26.0625 C412.896563,25.84375 413.158281,25.5664062 413.353594,25.2304688 C413.548906,24.8945312 413.646563,24.484375 413.646563,24 C413.646563,23.296875 413.45125,22.703125 413.060625,22.21875 C412.67,21.734375 412.177813,21.34375 411.584063,21.046875 C410.990313,20.75 410.341875,20.5351562 409.63875,20.4023438 C408.935625,20.2695312 408.271563,20.203125 407.646563,20.203125 C406.802813,20.203125 405.947344,20.296875 405.080156,20.484375 C404.212969,20.671875 403.334063,20.8984375 402.443438,21.1640625 Z M400.63875,9.984375 C400.466875,10.03125 400.334063,10.0859375 400.240313,10.1484375 C400.146563,10.2109375 400.099688,10.328125 400.099688,10.5 C400.099688,10.671875 400.134844,10.9804688 400.205156,11.4257812 C400.275469,11.8710938 400.361406,12.375 400.462969,12.9375 C400.564531,13.5 400.673906,14.0820312 400.791094,14.6835938 C400.908281,15.2851562 401.01375,15.828125 401.1075,16.3125 C401.13875,16.609375 401.205156,16.8125 401.306719,16.921875 C401.408281,17.03125 401.537188,17.0859375 401.693438,17.0859375 C401.787188,17.0859375 401.908281,17.0664062 402.056719,17.0273438 C402.205156,16.9882812 402.404375,16.9296875 402.654375,16.8515625 C403.295,16.6484375 403.970781,16.4179688 404.681719,16.1601562 C405.392656,15.9023438 406.041094,15.59375 406.627031,15.234375 C407.212969,14.875 407.697344,14.4492188 408.080156,13.9570312 C408.462969,13.4648438 408.654375,12.890625 408.654375,12.234375 C408.654375,11.71875 408.545,11.2851562 408.32625,10.9335938 C408.1075,10.5820312 407.802813,10.2929688 407.412188,10.0664062 C407.021563,9.83984375 406.568438,9.6796875 406.052813,9.5859375 C405.537188,9.4921875 404.974688,9.4453125 404.365313,9.4453125 C403.740313,9.4453125 403.111406,9.4921875 402.478594,9.5859375 C401.845781,9.6796875 401.2325,9.8125 400.63875,9.984375 Z" id="Shape"></path>
            <path d="M420.727188,22.265625 C420.680313,22.265625 420.606094,22.2734375 420.504531,22.2890625 C420.402969,22.3046875 420.293594,22.3203125 420.176406,22.3359375 C420.059219,22.3515625 419.945938,22.3671875 419.836563,22.3828125 C419.727188,22.3984375 419.64125,22.40625 419.57875,22.40625 C419.14125,22.40625 418.758438,22.2226562 418.430313,21.8554688 C418.102188,21.4882812 417.938125,21 417.938125,20.390625 C417.938125,19.984375 418.070938,19.59375 418.336563,19.21875 C418.602188,18.84375 419.01625,18.53125 419.57875,18.28125 C419.750625,18.203125 419.887344,18.1132812 419.988906,18.0117188 C420.090469,17.9101562 420.14125,17.765625 420.14125,17.578125 C420.14125,17.078125 420.129531,16.5429688 420.106094,15.9726562 C420.082656,15.4023438 420.0475,14.734375 420.000625,13.96875 C419.985,13.8125 419.934219,13.6640625 419.848281,13.5234375 C419.762344,13.3828125 419.668594,13.2226562 419.567031,13.0429688 C419.465469,12.8632812 419.375625,12.6640625 419.2975,12.4453125 C419.219375,12.2265625 419.180313,11.953125 419.180313,11.625 C419.180313,11.328125 419.223281,10.9882812 419.309219,10.6054688 C419.395156,10.2226562 419.574844,9.86328125 419.848281,9.52734375 C420.121719,9.19140625 420.504531,8.91015625 420.996719,8.68359375 C421.488906,8.45703125 422.133438,8.34375 422.930313,8.34375 C423.258438,8.34375 423.531875,8.375 423.750625,8.4375 C423.969375,8.5 424.160781,8.57421875 424.324844,8.66015625 C424.488906,8.74609375 424.637344,8.8203125 424.770156,8.8828125 C424.902969,8.9453125 425.039688,8.9765625 425.180313,8.9765625 C425.430313,8.9765625 425.930313,8.9296875 426.680313,8.8359375 C427.430313,8.7421875 428.332656,8.609375 429.387344,8.4375 C430.442031,8.265625 431.606094,8.0703125 432.879531,7.8515625 C434.152969,7.6328125 435.445938,7.39453125 436.758438,7.13671875 C438.070938,6.87890625 439.352188,6.6171875 440.602188,6.3515625 C441.852188,6.0859375 442.985,5.828125 444.000625,5.578125 C444.313125,5.5 444.586563,5.4609375 444.820938,5.4609375 C445.149063,5.4609375 445.410781,5.53515625 445.606094,5.68359375 C445.801406,5.83203125 445.945938,6.015625 446.039688,6.234375 C446.133438,6.453125 446.192031,6.69921875 446.215469,6.97265625 C446.238906,7.24609375 446.250625,7.5 446.250625,7.734375 C446.250625,8.140625 446.113906,8.51953125 445.840469,8.87109375 C445.567031,9.22265625 445.117813,9.5 444.492813,9.703125 C442.945938,10.15625 441.387344,10.5507812 439.817031,10.8867188 C438.246719,11.2226562 436.664688,11.5273438 435.070938,11.8007812 C433.477188,12.0742188 431.875625,12.3203125 430.26625,12.5390625 C428.656875,12.7578125 427.055313,12.9765625 425.461563,13.1953125 C425.242813,13.2265625 425.07875,13.3085938 424.969375,13.4414062 C424.86,13.5742188 424.805313,13.75 424.805313,13.96875 L424.805313,14.9296875 C424.805313,15.1953125 424.813125,15.46875 424.82875,15.75 C424.844375,16.03125 424.879531,16.2890625 424.934219,16.5234375 C424.988906,16.7578125 425.063125,16.9492188 425.156875,17.0976562 C425.250625,17.2460938 425.375625,17.3203125 425.531875,17.3203125 C425.906875,17.3203125 426.488906,17.2421875 427.277969,17.0859375 C428.067031,16.9296875 428.957656,16.7382812 429.949844,16.5117188 C430.942031,16.2851562 431.981094,16.0351562 433.067031,15.7617188 C434.152969,15.4882812 435.180313,15.2382812 436.149063,15.0117188 C437.117813,14.7851562 437.969375,14.59375 438.70375,14.4375 C439.438125,14.28125 439.95375,14.203125 440.250625,14.203125 C440.688125,14.203125 441.020156,14.3632812 441.246719,14.6835938 C441.473281,15.0039062 441.625625,15.40625 441.70375,15.890625 C441.70375,15.96875 441.711563,16.0390625 441.727188,16.1015625 C441.742813,16.1640625 441.750625,16.234375 441.750625,16.3125 C441.750625,16.765625 441.613906,17.1835938 441.340469,17.5664062 C441.067031,17.9492188 440.57875,18.234375 439.875625,18.421875 C439.688125,18.484375 439.313125,18.5820312 438.750625,18.7148438 C438.188125,18.8476562 437.524063,19.0039062 436.758438,19.1835938 C435.992813,19.3632812 435.164688,19.5546875 434.274063,19.7578125 C433.383438,19.9609375 432.508438,20.1601562 431.649063,20.3554688 C430.789688,20.5507812 429.988906,20.7382812 429.246719,20.9179688 C428.504531,21.0976562 427.899063,21.2421875 427.430313,21.3515625 C427.008438,21.4609375 426.754531,21.546875 426.668594,21.609375 C426.582656,21.671875 426.539688,21.75 426.539688,21.84375 C426.570938,22.1875 426.746719,22.5078125 427.067031,22.8046875 C427.387344,23.1015625 427.793594,23.375 428.285781,23.625 C428.777969,23.875 429.332656,24.1015625 429.949844,24.3046875 C430.567031,24.5078125 431.207656,24.6757812 431.871719,24.8085938 C432.535781,24.9414062 433.188125,25.046875 433.82875,25.125 C434.469375,25.203125 435.063125,25.2421875 435.61,25.2421875 C435.844375,25.2421875 436.180313,25.2421875 436.617813,25.2421875 C437.055313,25.2421875 437.535781,25.2304688 438.059219,25.2070312 C438.582656,25.1835938 439.121719,25.1484375 439.676406,25.1015625 C440.231094,25.0546875 440.731094,24.9882812 441.176406,24.9023438 C441.621719,24.8164062 441.988906,24.7070312 442.277969,24.5742188 C442.567031,24.4414062 442.711563,24.28125 442.711563,24.09375 C442.711563,23.921875 442.652969,23.7421875 442.535781,23.5546875 C442.418594,23.3671875 442.36,23.1640625 442.36,22.9453125 C442.36,22.6328125 442.445938,22.3242188 442.617813,22.0195312 C442.789688,21.7148438 443.012344,21.4414062 443.285781,21.1992188 C443.559219,20.9570312 443.871719,20.7617188 444.223281,20.6132812 C444.574844,20.4648438 444.930313,20.390625 445.289688,20.390625 C445.742813,20.390625 446.156875,20.4804688 446.531875,20.6601562 C446.906875,20.8398438 447.231094,21.0742188 447.504531,21.3632812 C447.777969,21.6523438 447.988906,21.984375 448.137344,22.359375 C448.285781,22.734375 448.36,23.1171875 448.36,23.5078125 C448.36,24.5390625 447.981094,25.4296875 447.223281,26.1796875 C446.465469,26.9296875 445.477188,27.5507812 444.258438,28.0429688 C443.039688,28.5351562 441.664688,28.9023438 440.133438,29.1445312 C438.602188,29.3867188 437.063125,29.5078125 435.51625,29.5078125 C433.70375,29.5078125 432.0475,29.3867188 430.5475,29.1445312 C429.0475,28.9023438 427.70375,28.515625 426.51625,27.984375 C425.32875,27.453125 424.305313,26.7617188 423.445938,25.9101562 C422.586563,25.0585938 421.883438,24.0234375 421.336563,22.8046875 C421.149063,22.4453125 420.945938,22.265625 420.727188,22.265625 Z" id="Path"></path>
            <path d="M463.763438,18.421875 C463.763438,19.359375 463.993906,20.2304688 464.454844,21.0351562 C464.915781,21.8398438 465.52125,22.5429688 466.27125,23.1445312 C467.02125,23.7460938 467.880625,24.2148438 468.849375,24.5507812 C469.818125,24.8867188 470.810313,25.0546875 471.825938,25.0546875 C472.138438,25.0546875 472.45875,25.0273438 472.786875,24.9726562 C473.115,24.9179688 473.411875,24.8203125 473.6775,24.6796875 C473.943125,24.5390625 474.161875,24.3554688 474.33375,24.1289062 C474.505625,23.9023438 474.591563,23.6171875 474.591563,23.2734375 C474.591563,22.6171875 474.361094,21.96875 473.900156,21.328125 C473.439219,20.6875 472.83375,20.0507812 472.08375,19.4179688 C471.33375,18.7851562 470.474375,18.1523438 469.505625,17.5195312 C468.536875,16.8867188 467.5525,16.2578125 466.5525,15.6328125 C465.5525,15.0078125 464.568125,14.3789062 463.599375,13.7460938 C462.630625,13.1132812 461.77125,12.4804688 461.02125,11.8476562 C460.27125,11.2148438 459.665781,10.5742188 459.204844,9.92578125 C458.743906,9.27734375 458.513438,8.625 458.513438,7.96875 C458.513438,7.34375 458.673594,6.76171875 458.993906,6.22265625 C459.314219,5.68359375 459.74,5.1953125 460.27125,4.7578125 C460.8025,4.3203125 461.419688,3.9296875 462.122813,3.5859375 C462.825938,3.2421875 463.560313,2.953125 464.325938,2.71875 C465.091563,2.484375 465.861094,2.30859375 466.634531,2.19140625 C467.407969,2.07421875 468.14625,2.015625 468.849375,2.015625 C469.365,2.015625 469.931406,2.02734375 470.548594,2.05078125 C471.165781,2.07421875 471.743906,2.14453125 472.282969,2.26171875 C472.822031,2.37890625 473.27125,2.5546875 473.630625,2.7890625 C473.99,3.0234375 474.169688,3.359375 474.169688,3.796875 C474.169688,3.9375 474.14625,4.11328125 474.099375,4.32421875 C474.0525,4.53515625 473.919688,4.8828125 473.700938,5.3671875 C473.482188,5.8203125 473.228281,6.16015625 472.939219,6.38671875 C472.650156,6.61328125 472.279063,6.7265625 471.825938,6.7265625 C471.185313,6.7265625 470.509531,6.65234375 469.798594,6.50390625 C469.087656,6.35546875 468.372813,6.28125 467.654063,6.28125 C467.263438,6.28125 466.868906,6.30078125 466.470469,6.33984375 C466.072031,6.37890625 465.70875,6.44921875 465.380625,6.55078125 C465.0525,6.65234375 464.786875,6.80078125 464.58375,6.99609375 C464.380625,7.19140625 464.279063,7.4375 464.279063,7.734375 C464.279063,8.03125 464.493906,8.3671875 464.923594,8.7421875 C465.353281,9.1171875 465.923594,9.53125 466.634531,9.984375 C467.345469,10.4375 468.154063,10.9335938 469.060313,11.4726562 C469.966563,12.0117188 470.892344,12.5898438 471.837656,13.2070312 C472.782969,13.8242188 473.70875,14.4804688 474.615,15.1757812 C475.52125,15.8710938 476.329844,16.6054688 477.040781,17.3789062 C477.751719,18.1523438 478.322031,18.96875 478.751719,19.828125 C479.181406,20.6875 479.39625,21.578125 479.39625,22.5 C479.39625,23.625 479.138438,24.6171875 478.622813,25.4765625 C478.107188,26.3359375 477.443125,27.0546875 476.630625,27.6328125 C475.818125,28.2109375 474.919688,28.6445312 473.935313,28.9335938 C472.950938,29.2226562 471.99,29.3671875 471.0525,29.3671875 C470.099375,29.3671875 469.134531,29.2539062 468.157969,29.0273438 C467.181406,28.8007812 466.24,28.4804688 465.33375,28.0664062 C464.4275,27.6523438 463.579844,27.1523438 462.790781,26.5664062 C462.001719,25.9804688 461.318125,25.3242188 460.74,24.5976562 C460.161875,23.8710938 459.704844,23.0859375 459.368906,22.2421875 C459.032969,21.3984375 458.865,20.515625 458.865,19.59375 C458.865,19.203125 458.892344,18.8085938 458.947031,18.4101562 C459.001719,18.0117188 459.099375,17.6601562 459.24,17.3554688 C459.380625,17.0507812 459.575938,16.8007812 459.825938,16.6054688 C460.075938,16.4101562 460.39625,16.3125 460.786875,16.3125 C460.911875,16.3125 461.0525,16.3242188 461.20875,16.3476562 C461.365,16.3710938 461.638438,16.4453125 462.029063,16.5703125 C462.482188,16.7109375 462.884531,16.9335938 463.236094,17.2382812 C463.587656,17.5429688 463.763438,17.9375 463.763438,18.421875 Z" id="Path"></path>
            <path d="M480.312813,23.3671875 C480.047188,23.3671875 479.847969,23.234375 479.715156,22.96875 C479.582344,22.703125 479.515938,22.328125 479.515938,21.84375 C479.515938,21.765625 479.515938,21.6757812 479.515938,21.5742188 C479.515938,21.4726562 479.531563,21.2734375 479.562813,20.9765625 C479.609688,19.8515625 480.164375,19.1953125 481.226875,19.0078125 L481.765938,18.9609375 C482.125313,18.9140625 482.406563,18.8007812 482.609688,18.6210938 C482.812813,18.4414062 482.96125,18.1875 483.055,17.859375 C483.320625,16.96875 483.58625,16.0703125 483.851875,15.1640625 C484.1175,14.2578125 484.39875,13.359375 484.695625,12.46875 C484.851875,11.96875 485.012031,11.4335938 485.176094,10.8632812 C485.340156,10.2929688 485.519844,9.7265625 485.715156,9.1640625 C485.910469,8.6015625 486.137031,8.046875 486.394844,7.5 C486.652656,6.953125 486.945625,6.453125 487.27375,6 C487.414375,5.8125 487.609688,5.6171875 487.859688,5.4140625 C488.109688,5.2109375 488.394844,5.02734375 488.715156,4.86328125 C489.035469,4.69921875 489.379219,4.56640625 489.746406,4.46484375 C490.113594,4.36328125 490.476875,4.3125 490.83625,4.3125 C491.305,4.3125 491.765938,4.4609375 492.219063,4.7578125 C492.828438,5.1796875 493.43,5.6875 494.02375,6.28125 C494.6175,6.875 495.281563,7.6328125 496.015938,8.5546875 C496.750313,9.4765625 497.601875,10.5898438 498.570625,11.8945312 C499.539375,13.1992188 500.703438,14.7734375 502.062813,16.6171875 C502.265938,16.8515625 502.480781,17.0273438 502.707344,17.1445312 C502.933906,17.2617188 503.203438,17.3203125 503.515938,17.3203125 L504.851875,17.3203125 C505.39875,17.3203125 505.824531,17.4492188 506.129219,17.7070312 C506.433906,17.9648438 506.58625,18.3203125 506.58625,18.7734375 C506.58625,18.8671875 506.582344,18.9765625 506.574531,19.1015625 C506.566719,19.2265625 506.539375,19.3515625 506.4925,19.4765625 L506.047188,20.7890625 C506.015938,20.9140625 505.9925,21.0234375 505.976875,21.1171875 C505.96125,21.2109375 505.953438,21.3046875 505.953438,21.3984375 C505.953438,21.7265625 506.062813,22.0625 506.281563,22.40625 L508.789375,25.828125 C509.070625,26.25 509.21125,26.6484375 509.21125,27.0234375 C509.21125,27.5859375 508.890938,28.078125 508.250313,28.5 L507.359688,29.1328125 C507.140938,29.2734375 506.933906,29.3828125 506.738594,29.4609375 C506.543281,29.5390625 506.344063,29.578125 506.140938,29.578125 C505.859688,29.578125 505.597969,29.4960938 505.355781,29.3320312 C505.113594,29.1679688 504.883125,28.9453125 504.664375,28.6640625 C503.914375,27.6015625 503.160469,26.5546875 502.402656,25.5234375 C501.644844,24.4921875 500.875313,23.46875 500.094063,22.453125 C499.734688,21.953125 499.258125,21.703125 498.664375,21.703125 C496.758125,21.78125 494.871406,21.8867188 493.004219,22.0195312 C491.137031,22.1523438 489.265938,22.3125 487.390938,22.5 C486.719063,22.5625 486.297188,22.921875 486.125313,23.578125 L485.070625,27.4453125 C484.789375,28.4765625 484.164375,28.9921875 483.195625,28.9921875 L482.820625,28.9921875 L482.094063,28.8984375 C481.562813,28.8515625 481.160469,28.6875 480.887031,28.40625 C480.613594,28.125 480.476875,27.7578125 480.476875,27.3046875 C480.476875,27.2109375 480.484688,27.109375 480.500313,27 C480.515938,26.890625 480.539375,26.7734375 480.570625,26.6484375 C480.64875,26.3359375 480.730781,26.015625 480.816719,25.6875 C480.902656,25.359375 480.9925,25.0390625 481.08625,24.7265625 C481.1175,24.6015625 481.140938,24.4882812 481.156563,24.3867188 C481.172188,24.2851562 481.18,24.1875 481.18,24.09375 C481.18,23.609375 480.9925,23.3671875 480.6175,23.3671875 L480.312813,23.3671875 Z M491.469063,10.9921875 C491.312813,10.8515625 491.172188,10.734375 491.047188,10.640625 C490.922188,10.546875 490.789375,10.5 490.64875,10.5 C490.258125,10.5 489.984688,10.7734375 489.828438,11.3203125 C489.515938,12.2421875 489.215156,13.1523438 488.926094,14.0507812 C488.637031,14.9492188 488.344063,15.8671875 488.047188,16.8046875 C488.015938,16.8828125 488.000313,16.953125 488.000313,17.015625 C488.000313,17.078125 488.000313,17.1484375 488.000313,17.2265625 C488.000313,17.8046875 488.305,18.09375 488.914375,18.09375 L489.14875,18.09375 C490.08625,17.96875 491.02375,17.8710938 491.96125,17.8007812 C492.89875,17.7304688 493.83625,17.671875 494.77375,17.625 C495.08625,17.59375 495.332344,17.5117188 495.512031,17.3789062 C495.691719,17.2460938 495.781563,17.0703125 495.781563,16.8515625 C495.781563,16.6484375 495.687813,16.40625 495.500313,16.125 C494.844063,15.25 494.183906,14.3867188 493.519844,13.5351562 C492.855781,12.6835938 492.172188,11.8359375 491.469063,10.9921875 Z" id="Shape"></path>
            <path d="M511.159063,19.0546875 C510.409063,17.9921875 509.702031,16.9882812 509.037969,16.0429688 C508.373906,15.0976562 507.791875,14.2148438 507.291875,13.3945312 C506.791875,12.5742188 506.397344,11.8203125 506.108281,11.1328125 C505.819219,10.4453125 505.674688,9.8203125 505.674688,9.2578125 C505.674688,8.9765625 505.795781,8.66796875 506.037969,8.33203125 C506.280156,7.99609375 506.565313,7.68359375 506.893438,7.39453125 C507.221563,7.10546875 507.561406,6.86328125 507.912969,6.66796875 C508.264531,6.47265625 508.5575,6.375 508.791875,6.375 C509.354375,6.375 509.83875,6.7265625 510.245,7.4296875 C510.416875,7.7578125 510.678594,8.23828125 511.030156,8.87109375 C511.381719,9.50390625 511.791875,10.2226562 512.260625,11.0273438 C512.729375,11.8320312 513.248906,12.6914062 513.819219,13.6054688 C514.389531,14.5195312 514.975469,15.4296875 515.577031,16.3359375 C516.178594,17.2421875 516.780156,18.1132812 517.381719,18.9492188 C517.983281,19.7851562 518.561406,20.5234375 519.116094,21.1640625 C519.670781,21.8046875 520.186406,22.3164062 520.662969,22.6992188 C521.139531,23.0820312 521.549688,23.2734375 521.893438,23.2734375 C522.346563,23.2734375 522.760625,22.9609375 523.135625,22.3359375 C523.510625,21.7109375 523.858281,20.890625 524.178594,19.875 C524.498906,18.859375 524.784063,17.7070312 525.034063,16.4179688 C525.284063,15.1289062 525.506719,13.8203125 525.702031,12.4921875 C525.897344,11.1640625 526.065313,9.87890625 526.205938,8.63671875 C526.346563,7.39453125 526.46375,6.3046875 526.5575,5.3671875 C526.604375,4.8671875 526.745,4.48828125 526.979375,4.23046875 C527.21375,3.97265625 527.518438,3.84375 527.893438,3.84375 C528.221563,3.84375 528.580938,3.9140625 528.971563,4.0546875 C529.362188,4.1953125 529.729375,4.38671875 530.073125,4.62890625 C530.416875,4.87109375 530.702031,5.15234375 530.928594,5.47265625 C531.155156,5.79296875 531.268438,6.140625 531.268438,6.515625 C531.268438,7.09375 531.217656,7.7734375 531.116094,8.5546875 C531.014531,9.3359375 530.889531,10.1601562 530.741094,11.0273438 C530.592656,11.8945312 530.424688,12.7773438 530.237188,13.6757812 C530.049688,14.5742188 529.862188,15.421875 529.674688,16.21875 C529.549688,16.78125 529.381719,17.4804688 529.170781,18.3164062 C528.959844,19.1523438 528.698125,20.0351562 528.385625,20.9648438 C528.073125,21.8945312 527.705938,22.8242188 527.284063,23.7539062 C526.862188,24.6835938 526.377813,25.5195312 525.830938,26.2617188 C525.284063,27.0039062 524.670781,27.6054688 523.991094,28.0664062 C523.311406,28.5273438 522.549688,28.7578125 521.705938,28.7578125 C521.096563,28.7578125 520.46375,28.5898438 519.8075,28.2539062 C519.15125,27.9179688 518.495,27.4765625 517.83875,26.9296875 C517.1825,26.3828125 516.534063,25.7617188 515.893438,25.0664062 C515.252813,24.3710938 514.643438,23.6640625 514.065313,22.9453125 C513.487188,22.2265625 512.948125,21.5273438 512.448125,20.8476562 C511.948125,20.1679688 511.518438,19.5703125 511.159063,19.0546875 Z" id="Path"></path>
            <path d="M536.474063,22.265625 C536.427188,22.265625 536.352969,22.2734375 536.251406,22.2890625 C536.149844,22.3046875 536.040469,22.3203125 535.923281,22.3359375 C535.806094,22.3515625 535.692813,22.3671875 535.583438,22.3828125 C535.474063,22.3984375 535.388125,22.40625 535.325625,22.40625 C534.888125,22.40625 534.505313,22.2226562 534.177188,21.8554688 C533.849063,21.4882812 533.685,21 533.685,20.390625 C533.685,19.984375 533.817813,19.59375 534.083438,19.21875 C534.349063,18.84375 534.763125,18.53125 535.325625,18.28125 C535.4975,18.203125 535.634219,18.1132812 535.735781,18.0117188 C535.837344,17.9101562 535.888125,17.765625 535.888125,17.578125 C535.888125,17.078125 535.876406,16.5429688 535.852969,15.9726562 C535.829531,15.4023438 535.794375,14.734375 535.7475,13.96875 C535.731875,13.8125 535.681094,13.6640625 535.595156,13.5234375 C535.509219,13.3828125 535.415469,13.2226562 535.313906,13.0429688 C535.212344,12.8632812 535.1225,12.6640625 535.044375,12.4453125 C534.96625,12.2265625 534.927188,11.953125 534.927188,11.625 C534.927188,11.328125 534.970156,10.9882812 535.056094,10.6054688 C535.142031,10.2226562 535.321719,9.86328125 535.595156,9.52734375 C535.868594,9.19140625 536.251406,8.91015625 536.743594,8.68359375 C537.235781,8.45703125 537.880313,8.34375 538.677188,8.34375 C539.005313,8.34375 539.27875,8.375 539.4975,8.4375 C539.71625,8.5 539.907656,8.57421875 540.071719,8.66015625 C540.235781,8.74609375 540.384219,8.8203125 540.517031,8.8828125 C540.649844,8.9453125 540.786563,8.9765625 540.927188,8.9765625 C541.177188,8.9765625 541.677188,8.9296875 542.427188,8.8359375 C543.177188,8.7421875 544.079531,8.609375 545.134219,8.4375 C546.188906,8.265625 547.352969,8.0703125 548.626406,7.8515625 C549.899844,7.6328125 551.192813,7.39453125 552.505313,7.13671875 C553.817813,6.87890625 555.099063,6.6171875 556.349063,6.3515625 C557.599063,6.0859375 558.731875,5.828125 559.7475,5.578125 C560.06,5.5 560.333438,5.4609375 560.567813,5.4609375 C560.895938,5.4609375 561.157656,5.53515625 561.352969,5.68359375 C561.548281,5.83203125 561.692813,6.015625 561.786563,6.234375 C561.880313,6.453125 561.938906,6.69921875 561.962344,6.97265625 C561.985781,7.24609375 561.9975,7.5 561.9975,7.734375 C561.9975,8.140625 561.860781,8.51953125 561.587344,8.87109375 C561.313906,9.22265625 560.864688,9.5 560.239688,9.703125 C558.692813,10.15625 557.134219,10.5507812 555.563906,10.8867188 C553.993594,11.2226562 552.411563,11.5273438 550.817813,11.8007812 C549.224063,12.0742188 547.6225,12.3203125 546.013125,12.5390625 C544.40375,12.7578125 542.802188,12.9765625 541.208438,13.1953125 C540.989688,13.2265625 540.825625,13.3085938 540.71625,13.4414062 C540.606875,13.5742188 540.552188,13.75 540.552188,13.96875 L540.552188,14.9296875 C540.552188,15.1953125 540.56,15.46875 540.575625,15.75 C540.59125,16.03125 540.626406,16.2890625 540.681094,16.5234375 C540.735781,16.7578125 540.81,16.9492188 540.90375,17.0976562 C540.9975,17.2460938 541.1225,17.3203125 541.27875,17.3203125 C541.65375,17.3203125 542.235781,17.2421875 543.024844,17.0859375 C543.813906,16.9296875 544.704531,16.7382812 545.696719,16.5117188 C546.688906,16.2851562 547.727969,16.0351562 548.813906,15.7617188 C549.899844,15.4882812 550.927188,15.2382812 551.895938,15.0117188 C552.864688,14.7851562 553.71625,14.59375 554.450625,14.4375 C555.185,14.28125 555.700625,14.203125 555.9975,14.203125 C556.435,14.203125 556.767031,14.3632812 556.993594,14.6835938 C557.220156,15.0039062 557.3725,15.40625 557.450625,15.890625 C557.450625,15.96875 557.458438,16.0390625 557.474063,16.1015625 C557.489688,16.1640625 557.4975,16.234375 557.4975,16.3125 C557.4975,16.765625 557.360781,17.1835938 557.087344,17.5664062 C556.813906,17.9492188 556.325625,18.234375 555.6225,18.421875 C555.435,18.484375 555.06,18.5820312 554.4975,18.7148438 C553.935,18.8476562 553.270938,19.0039062 552.505313,19.1835938 C551.739688,19.3632812 550.911563,19.5546875 550.020938,19.7578125 C549.130313,19.9609375 548.255313,20.1601562 547.395938,20.3554688 C546.536563,20.5507812 545.735781,20.7382812 544.993594,20.9179688 C544.251406,21.0976562 543.645938,21.2421875 543.177188,21.3515625 C542.755313,21.4609375 542.501406,21.546875 542.415469,21.609375 C542.329531,21.671875 542.286563,21.75 542.286563,21.84375 C542.317813,22.1875 542.493594,22.5078125 542.813906,22.8046875 C543.134219,23.1015625 543.540469,23.375 544.032656,23.625 C544.524844,23.875 545.079531,24.1015625 545.696719,24.3046875 C546.313906,24.5078125 546.954531,24.6757812 547.618594,24.8085938 C548.282656,24.9414062 548.935,25.046875 549.575625,25.125 C550.21625,25.203125 550.81,25.2421875 551.356875,25.2421875 C551.59125,25.2421875 551.927188,25.2421875 552.364688,25.2421875 C552.802188,25.2421875 553.282656,25.2304688 553.806094,25.2070312 C554.329531,25.1835938 554.868594,25.1484375 555.423281,25.1015625 C555.977969,25.0546875 556.477969,24.9882812 556.923281,24.9023438 C557.368594,24.8164062 557.735781,24.7070312 558.024844,24.5742188 C558.313906,24.4414062 558.458438,24.28125 558.458438,24.09375 C558.458438,23.921875 558.399844,23.7421875 558.282656,23.5546875 C558.165469,23.3671875 558.106875,23.1640625 558.106875,22.9453125 C558.106875,22.6328125 558.192813,22.3242188 558.364688,22.0195312 C558.536563,21.7148438 558.759219,21.4414062 559.032656,21.1992188 C559.306094,20.9570312 559.618594,20.7617188 559.970156,20.6132812 C560.321719,20.4648438 560.677188,20.390625 561.036563,20.390625 C561.489688,20.390625 561.90375,20.4804688 562.27875,20.6601562 C562.65375,20.8398438 562.977969,21.0742188 563.251406,21.3632812 C563.524844,21.6523438 563.735781,21.984375 563.884219,22.359375 C564.032656,22.734375 564.106875,23.1171875 564.106875,23.5078125 C564.106875,24.5390625 563.727969,25.4296875 562.970156,26.1796875 C562.212344,26.9296875 561.224063,27.5507812 560.005313,28.0429688 C558.786563,28.5351562 557.411563,28.9023438 555.880313,29.1445312 C554.349063,29.3867188 552.81,29.5078125 551.263125,29.5078125 C549.450625,29.5078125 547.794375,29.3867188 546.294375,29.1445312 C544.794375,28.9023438 543.450625,28.515625 542.263125,27.984375 C541.075625,27.453125 540.052188,26.7617188 539.192813,25.9101562 C538.333438,25.0585938 537.630313,24.0234375 537.083438,22.8046875 C536.895938,22.4453125 536.692813,22.265625 536.474063,22.265625 Z" id="Path"></path>
            <path d="M561.742188,10.125 C561.539063,10.15625 561.367188,10.1796875 561.226563,10.1953125 C561.085938,10.2109375 560.96875,10.21875 560.875,10.21875 C560.34375,10.1875 559.96875,10.0351562 559.75,9.76171875 C559.53125,9.48828125 559.421875,9.03125 559.421875,8.390625 C559.421875,7.125 560.03125,6.328125 561.25,6 C562.328125,5.75 563.484375,5.56640625 564.71875,5.44921875 C565.953125,5.33203125 567.328125,5.2734375 568.84375,5.2734375 C570.875,5.2734375 572.894531,5.46875 574.902344,5.859375 C576.910156,6.25 578.824219,6.78515625 580.644531,7.46484375 C582.464844,8.14453125 584.15625,8.94921875 585.71875,9.87890625 C587.28125,10.8085938 588.636719,11.8164062 589.785156,12.9023438 C590.933594,13.9882812 591.832031,15.1289062 592.480469,16.3242188 C593.128906,17.5195312 593.453125,18.71875 593.453125,19.921875 C593.453125,21.140625 593.042969,22.3007812 592.222656,23.4023438 C591.402344,24.5039062 590.296875,25.4765625 588.90625,26.3203125 C587.515625,27.1640625 585.90625,27.8359375 584.078125,28.3359375 C582.25,28.8359375 580.335938,29.0859375 578.335938,29.0859375 C576.742188,29.0859375 575.078125,28.9375 573.34375,28.640625 C571.609375,28.34375 569.695313,27.8671875 567.601563,27.2109375 C566.632813,26.9453125 566.148438,26.3515625 566.148438,25.4296875 C566.148438,25.2265625 566.195313,25.0390625 566.289063,24.8671875 C566.382813,24.6953125 566.480469,24.53125 566.582031,24.375 C566.683594,24.21875 566.78125,24.0664062 566.875,23.9179688 C566.96875,23.7695312 567.015625,23.6171875 567.015625,23.4609375 C567.015625,22.5703125 566.972656,21.6171875 566.886719,20.6015625 C566.800781,19.5859375 566.683594,18.5703125 566.535156,17.5546875 C566.386719,16.5390625 566.214844,15.5664062 566.019531,14.6367188 C565.824219,13.7070312 565.625,12.8828125 565.421875,12.1640625 C565.21875,11.4453125 565.011719,10.8710938 564.800781,10.4414062 C564.589844,10.0117188 564.398438,9.796875 564.226563,9.796875 C563.960938,9.796875 563.636719,9.828125 563.253906,9.890625 C562.871094,9.953125 562.367188,10.03125 561.742188,10.125 Z M570.765625,9.75 C570.3125,9.75 570.085938,9.90625 570.085938,10.21875 C570.085938,10.296875 570.109375,10.4296875 570.15625,10.6171875 C570.203125,10.8046875 570.273438,11.1015625 570.367188,11.5078125 C570.507813,12.1640625 570.640625,12.8671875 570.765625,13.6171875 C570.890625,14.3671875 571.015625,15.2070312 571.140625,16.1367188 C571.265625,17.0664062 571.386719,18.1054688 571.503906,19.2539062 C571.621094,20.4023438 571.742188,21.6953125 571.867188,23.1328125 C571.882813,23.3671875 572.09375,23.5898438 572.5,23.8007812 C572.90625,24.0117188 573.445313,24.1992188 574.117188,24.3632812 C574.789063,24.5273438 575.558594,24.6601562 576.425781,24.7617188 C577.292969,24.8632812 578.1875,24.9140625 579.109375,24.9140625 C580.328125,24.9140625 581.496094,24.7695312 582.613281,24.4804688 C583.730469,24.1914062 584.714844,23.8046875 585.566406,23.3203125 C586.417969,22.8359375 587.097656,22.2734375 587.605469,21.6328125 C588.113281,20.9921875 588.367188,20.328125 588.367188,19.640625 C588.367188,18.5 587.917969,17.390625 587.019531,16.3125 C586.121094,15.234375 584.882813,14.2539062 583.304688,13.3710938 C581.726563,12.4882812 579.867188,11.7304688 577.726563,11.0976562 C575.585938,10.4648438 573.265625,10.015625 570.765625,9.75 Z" id="Shape"></path>
            <path d="M601.0025,32.34375 C600.94,32.625 600.84625,32.8710938 600.72125,33.0820312 C600.59625,33.2929688 600.424375,33.4726562 600.205625,33.6210938 C599.986875,33.7695312 599.701719,33.8828125 599.350156,33.9609375 C598.998594,34.0390625 598.572813,34.078125 598.072813,34.078125 C597.494688,34.078125 597.045469,33.9570312 596.725156,33.7148438 C596.404844,33.4726562 596.244688,33.1328125 596.244688,32.6953125 C596.244688,32.5859375 596.264219,32.4179688 596.303281,32.1914062 C596.342344,31.9648438 596.424375,31.5546875 596.549375,30.9609375 C596.705625,30.1953125 596.857969,29.3398438 597.006406,28.3945312 C597.154844,27.4492188 597.287656,26.453125 597.404844,25.40625 C597.522031,24.359375 597.615781,23.2773438 597.686094,22.1601562 C597.756406,21.0429688 597.791563,19.9296875 597.791563,18.8203125 C597.791563,16.5859375 597.611875,14.3359375 597.2525,12.0703125 C596.893125,9.8046875 596.22125,7.65625 595.236875,5.625 C595.080625,5.296875 594.904844,4.9921875 594.709531,4.7109375 C594.514219,4.4296875 594.326719,4.1640625 594.147031,3.9140625 C593.967344,3.6640625 593.818906,3.421875 593.701719,3.1875 C593.584531,2.953125 593.525938,2.71875 593.525938,2.484375 C593.525938,2.21875 593.623594,1.96484375 593.818906,1.72265625 C594.014219,1.48046875 594.361875,1.1796875 594.861875,0.8203125 C595.315,0.5078125 595.666563,0.29296875 595.916563,0.17578125 C596.166563,0.05859375 596.393125,0 596.59625,0 C596.861875,0 597.170469,0.16015625 597.522031,0.48046875 C597.873594,0.80078125 598.2525,1.234375 598.65875,1.78125 C599.330625,2.734375 599.912656,3.86328125 600.404844,5.16796875 C600.897031,6.47265625 601.299375,7.87109375 601.611875,9.36328125 C601.924375,10.8554688 602.15875,12.390625 602.315,13.96875 C602.47125,15.546875 602.549375,17.0859375 602.549375,18.5859375 C602.549375,20.8671875 602.404844,23.1640625 602.115781,25.4765625 C601.826719,27.7890625 601.455625,30.078125 601.0025,32.34375 Z" id="Path"></path>
        </g>
    </g>
</svg>